<mxfile modified="2022-04-13T14:42:09.168Z" host="app.diagrams.net" agent="5.0 (Windows NT 10.0; Win64; x64) AppleWebKit/537.36 (KHTML, like Gecko) Chrome/100.0.4896.75 Safari/537.36" etag="8czHFmTf3yN74MDO6sBl" version="17.4.2" type="github">
  <diagram id="l8hXMBHkgcEJcSW0mbfh" name="Page-1">
    <mxGraphModel dx="2597" dy="1533" grid="1" gridSize="10" guides="1" tooltips="1" connect="1" arrows="1" fold="1" page="1" pageScale="1" pageWidth="1169" pageHeight="827" math="0" shadow="0">
      <root>
        <mxCell id="0" />
        <mxCell id="1" parent="0" />
        <mxCell id="8--HhbSZYtI3ddgJnD71-25" style="edgeStyle=none;rounded=0;orthogonalLoop=1;jettySize=auto;html=1;sourcePerimeterSpacing=5;endArrow=none;endFill=0;targetPerimeterSpacing=5;" parent="1" source="8--HhbSZYtI3ddgJnD71-2" edge="1">
          <mxGeometry relative="1" as="geometry">
            <mxPoint x="317.9999999999998" y="258.85950413223134" as="targetPoint" />
          </mxGeometry>
        </mxCell>
        <mxCell id="8--HhbSZYtI3ddgJnD71-23" style="edgeStyle=none;rounded=0;orthogonalLoop=1;jettySize=auto;html=1;sourcePerimeterSpacing=5;endArrow=none;endFill=0;targetPerimeterSpacing=5;exitX=1;exitY=0.5;exitDx=0;exitDy=0;" parent="1" source="_GWNJ5twluiKmYlob1LI-27" target="_GWNJ5twluiKmYlob1LI-10" edge="1">
          <mxGeometry relative="1" as="geometry">
            <mxPoint x="233" y="151.95696859548735" as="sourcePoint" />
            <mxPoint x="319.6111111111111" y="215" as="targetPoint" />
          </mxGeometry>
        </mxCell>
        <mxCell id="8--HhbSZYtI3ddgJnD71-20" style="rounded=0;orthogonalLoop=1;jettySize=auto;html=1;endArrow=none;endFill=0;sourcePerimeterSpacing=5;targetPerimeterSpacing=5;entryX=0;entryY=0;entryDx=0;entryDy=0;" parent="1" source="8--HhbSZYtI3ddgJnD71-17" target="_GWNJ5twluiKmYlob1LI-10" edge="1">
          <mxGeometry relative="1" as="geometry">
            <mxPoint x="365.06140350877195" y="215" as="targetPoint" />
          </mxGeometry>
        </mxCell>
        <mxCell id="8--HhbSZYtI3ddgJnD71-22" style="edgeStyle=none;rounded=0;orthogonalLoop=1;jettySize=auto;html=1;sourcePerimeterSpacing=5;endArrow=none;endFill=0;targetPerimeterSpacing=5;exitX=1;exitY=0.5;exitDx=0;exitDy=0;entryX=0;entryY=0.25;entryDx=0;entryDy=0;" parent="1" source="8--HhbSZYtI3ddgJnD71-18" target="_GWNJ5twluiKmYlob1LI-10" edge="1">
          <mxGeometry relative="1" as="geometry">
            <mxPoint x="342.3599999999999" y="215" as="targetPoint" />
          </mxGeometry>
        </mxCell>
        <mxCell id="8--HhbSZYtI3ddgJnD71-2" value="Order Online&#xa;(Gojek and Grab)" style="shape=image;verticalLabelPosition=bottom;verticalAlign=top;imageAspect=0;aspect=fixed;image=data:image/svg+xml,PHN2ZyB4bWxucz0iaHR0cDovL3d3dy53My5vcmcvMjAwMC9zdmciIHZlcnNpb249IjEiIHZpZXdCb3g9IjAgMCA0OCA0OCIgZW5hYmxlLWJhY2tncm91bmQ9Im5ldyAwIDAgNDggNDgiPiYjeGE7ICAgIDxwYXRoIGZpbGw9IiMzNzQ3NEYiIGQ9Ik00LDM5VjdjMC0yLjIsMS44LTQsNC00aDIyYzIuMiwwLDQsMS44LDQsNHYzMmMwLDIuMi0xLjgsNC00LDRIOEM1LjgsNDMsNCw0MS4yLDQsMzl6Ii8+JiN4YTsgICAgPHBhdGggZmlsbD0iI0JCREVGQiIgZD0iTTMwLDZIOEM3LjQsNiw3LDYuNCw3LDd2MjljMCwwLjYsMC40LDEsMSwxaDIyYzAuNiwwLDEtMC40LDEtMVY3QzMxLDYuNCwzMC42LDYsMzAsNnoiLz4mI3hhOyAgICA8cmVjdCB4PSIxNSIgeT0iMzkiIGZpbGw9IiM3ODkwOUMiIHdpZHRoPSI2IiBoZWlnaHQ9IjIiLz4mI3hhOyAgICA8cGF0aCBmaWxsPSIjRTM4OTM5IiBkPSJNMjQsNDFWMTdjMC0yLjIsMS44LTQsNC00aDEyYzIuMiwwLDQsMS44LDQsNHYyNGMwLDIuMi0xLjgsNC00LDRIMjhDMjUuOCw0NSwyNCw0My4yLDI0LDQxeiIvPiYjeGE7ICAgIDxwYXRoIGZpbGw9IiNGRkYzRTAiIGQ9Ik00MCwxNkgyOGMtMC42LDAtMSwwLjQtMSwxdjIyYzAsMC42LDAuNCwxLDEsMWgxMmMwLjYsMCwxLTAuNCwxLTFWMTdDNDEsMTYuNCw0MC42LDE2LDQwLDE2eiIvPiYjeGE7ICAgIDxjaXJjbGUgZmlsbD0iI0E2NjQyQSIgY3g9IjM0IiBjeT0iNDIuNSIgcj0iMS41Ii8+JiN4YTs8L3N2Zz4=;labelBackgroundColor=#ffffff;container=1;" parent="1" vertex="1">
          <mxGeometry x="202" y="282" width="48" height="48" as="geometry" />
        </mxCell>
        <mxCell id="8--HhbSZYtI3ddgJnD71-18" value="Customer" style="shape=image;verticalLabelPosition=bottom;verticalAlign=top;imageAspect=0;aspect=fixed;image=data:image/svg+xml,PHN2ZyB4bWxucz0iaHR0cDovL3d3dy53My5vcmcvMjAwMC9zdmciIHZlcnNpb249IjEiIHZpZXdCb3g9IjAgMCA0OCA0OCIgZW5hYmxlLWJhY2tncm91bmQ9Im5ldyAwIDAgNDggNDgiPiYjeGE7ICAgIDxwb2x5Z29uIGZpbGw9IiNGRjk4MDAiIHBvaW50cz0iMjQsMzcgMTksMzEgMTksMjUgMjksMjUgMjksMzEiLz4mI3hhOyAgICA8ZyBmaWxsPSIjRkZBNzI2Ij4mI3hhOyAgICAgICAgPGNpcmNsZSBjeD0iMzMiIGN5PSIxOSIgcj0iMiIvPiYjeGE7ICAgICAgICA8Y2lyY2xlIGN4PSIxNSIgY3k9IjE5IiByPSIyIi8+JiN4YTsgICAgPC9nPiYjeGE7ICAgIDxwYXRoIGZpbGw9IiNGRkI3NEQiIGQ9Ik0zMywxM2MwLTcuNi0xOC01LTE4LDBjMCwxLjEsMCw1LjksMCw3YzAsNSw0LDksOSw5czktNCw5LTlDMzMsMTguOSwzMywxNC4xLDMzLDEzeiIvPiYjeGE7ICAgIDxwYXRoIGZpbGw9IiM0MjQyNDIiIGQ9Ik0yNCw0Yy02LjEsMC0xMCw0LjktMTAsMTFjMCwwLjgsMCwyLjMsMCwyLjNsMiwxLjd2LTVsMTItNGw0LDR2NWwyLTEuN2MwLDAsMC0xLjUsMC0yLjNjMC00LTEtOC02LTlsLTEtMiBIMjR6Ii8+JiN4YTsgICAgPGcgZmlsbD0iIzc4NDcxOSI+JiN4YTsgICAgICAgIDxjaXJjbGUgY3g9IjI4IiBjeT0iMTkiIHI9IjEiLz4mI3hhOyAgICAgICAgPGNpcmNsZSBjeD0iMjAiIGN5PSIxOSIgcj0iMSIvPiYjeGE7ICAgIDwvZz4mI3hhOyAgICA8cG9seWdvbiBmaWxsPSIjZmZmIiBwb2ludHM9IjI0LDQzIDE5LDMxIDI0LDMyIDI5LDMxIi8+JiN4YTsgICAgPHBvbHlnb24gZmlsbD0iI0QzMkYyRiIgcG9pbnRzPSIyMywzNSAyMi4zLDM5LjUgMjQsNDMuNSAyNS43LDM5LjUgMjUsMzUgMjYsMzQgMjQsMzIgMjIsMzQiLz4mI3hhOyAgICA8cGF0aCBmaWxsPSIjNTQ2RTdBIiBkPSJNMjksMzFMMjksMzFsLTUsMTJsLTUtMTJjMCwwLTExLDItMTEsMTNoMzJDNDAsMzMsMjksMzEsMjksMzF6Ii8+JiN4YTs8L3N2Zz4=;labelBackgroundColor=#ffffff;container=1;" parent="1" vertex="1">
          <mxGeometry x="10" y="110" width="48" height="48" as="geometry" />
        </mxCell>
        <mxCell id="_GWNJ5twluiKmYlob1LI-7" value="Merchant" style="text;html=1;align=center;verticalAlign=middle;resizable=0;points=[];autosize=1;strokeColor=none;fillColor=none;" vertex="1" parent="1">
          <mxGeometry x="310" y="260" width="70" height="20" as="geometry" />
        </mxCell>
        <mxCell id="_GWNJ5twluiKmYlob1LI-40" value="" style="edgeStyle=orthogonalEdgeStyle;rounded=0;orthogonalLoop=1;jettySize=auto;html=1;exitX=0.492;exitY=1.106;exitDx=0;exitDy=0;exitPerimeter=0;entryX=0.021;entryY=0.625;entryDx=0;entryDy=0;entryPerimeter=0;" edge="1" parent="1" source="_GWNJ5twluiKmYlob1LI-7" target="_GWNJ5twluiKmYlob1LI-17">
          <mxGeometry relative="1" as="geometry">
            <mxPoint x="550" y="400" as="targetPoint" />
            <Array as="points">
              <mxPoint x="344" y="410" />
            </Array>
          </mxGeometry>
        </mxCell>
        <mxCell id="_GWNJ5twluiKmYlob1LI-42" value="" style="edgeStyle=orthogonalEdgeStyle;rounded=0;orthogonalLoop=1;jettySize=auto;html=1;entryX=0;entryY=0.5;entryDx=0;entryDy=0;" edge="1" parent="1" source="_GWNJ5twluiKmYlob1LI-10" target="_GWNJ5twluiKmYlob1LI-21">
          <mxGeometry relative="1" as="geometry">
            <mxPoint x="412.0011111111112" y="236" as="targetPoint" />
          </mxGeometry>
        </mxCell>
        <mxCell id="_GWNJ5twluiKmYlob1LI-44" value="" style="edgeStyle=orthogonalEdgeStyle;rounded=0;orthogonalLoop=1;jettySize=auto;html=1;entryX=0;entryY=0.5;entryDx=0;entryDy=0;exitX=0.5;exitY=0;exitDx=0;exitDy=0;" edge="1" parent="1" source="_GWNJ5twluiKmYlob1LI-10" target="_GWNJ5twluiKmYlob1LI-24">
          <mxGeometry relative="1" as="geometry">
            <mxPoint x="344.00111111111096" y="138" as="targetPoint" />
          </mxGeometry>
        </mxCell>
        <mxCell id="_GWNJ5twluiKmYlob1LI-10" value="" style="shape=image;verticalLabelPosition=bottom;verticalAlign=top;imageAspect=0;aspect=fixed;image=data:image/svg+xml,PHN2ZyB4bWxucz0iaHR0cDovL3d3dy53My5vcmcvMjAwMC9zdmciIHZlcnNpb249IjEiIHZpZXdCb3g9IjAgMCA0OCA0OCIgZW5hYmxlLWJhY2tncm91bmQ9Im5ldyAwIDAgNDggNDgiPiYjeGE7ICAgIDxyZWN0IHg9IjUiIHk9IjE5IiBmaWxsPSIjQ0ZEOERDIiB3aWR0aD0iMzgiIGhlaWdodD0iMTkiLz4mI3hhOyAgICA8cmVjdCB4PSI1IiB5PSIzOCIgZmlsbD0iI0IwQkVDNSIgd2lkdGg9IjM4IiBoZWlnaHQ9IjQiLz4mI3hhOyAgICA8cmVjdCB4PSIyNyIgeT0iMjQiIGZpbGw9IiM0NTVBNjQiIHdpZHRoPSIxMiIgaGVpZ2h0PSIxOCIvPiYjeGE7ICAgIDxyZWN0IHg9IjkiIHk9IjI0IiBmaWxsPSIjRTNGMkZEIiB3aWR0aD0iMTQiIGhlaWdodD0iMTEiLz4mI3hhOyAgICA8cmVjdCB4PSIxMCIgeT0iMjUiIGZpbGw9IiMxRTg4RTUiIHdpZHRoPSIxMiIgaGVpZ2h0PSI5Ii8+JiN4YTsgICAgPHBhdGggZmlsbD0iIzkwQTRBRSIgZD0iTTM2LjUsMzMuNWMtMC4zLDAtMC41LDAuMi0wLjUsMC41djJjMCwwLjMsMC4yLDAuNSwwLjUsMC41UzM3LDM2LjMsMzcsMzZ2LTJDMzcsMzMuNywzNi44LDMzLjUsMzYuNSwzMy41eiIvPiYjeGE7ICAgIDxnIGZpbGw9IiM1NThCMkYiPiYjeGE7ICAgICAgICA8Y2lyY2xlIGN4PSIyNCIgY3k9IjE5IiByPSIzIi8+JiN4YTsgICAgICAgIDxjaXJjbGUgY3g9IjM2IiBjeT0iMTkiIHI9IjMiLz4mI3hhOyAgICAgICAgPGNpcmNsZSBjeD0iMTIiIGN5PSIxOSIgcj0iMyIvPiYjeGE7ICAgIDwvZz4mI3hhOyAgICA8cGF0aCBmaWxsPSIjN0NCMzQyIiBkPSJNNDAsNkg4QzYuOSw2LDYsNi45LDYsOHYzaDM2VjhDNDIsNi45LDQxLjEsNiw0MCw2eiIvPiYjeGE7ICAgIDxyZWN0IHg9IjIxIiB5PSIxMSIgZmlsbD0iIzdDQjM0MiIgd2lkdGg9IjYiIGhlaWdodD0iOCIvPiYjeGE7ICAgIDxwb2x5Z29uIGZpbGw9IiM3Q0IzNDIiIHBvaW50cz0iMzcsMTEgMzIsMTEgMzMsMTkgMzksMTkiLz4mI3hhOyAgICA8cG9seWdvbiBmaWxsPSIjN0NCMzQyIiBwb2ludHM9IjExLDExIDE2LDExIDE1LDE5IDksMTkiLz4mI3hhOyAgICA8ZyBmaWxsPSIjRkZBMDAwIj4mI3hhOyAgICAgICAgPGNpcmNsZSBjeD0iMzAiIGN5PSIxOSIgcj0iMyIvPiYjeGE7ICAgICAgICA8cGF0aCBkPSJNNDUsMTljMCwxLjctMS4zLDMtMywzcy0zLTEuMy0zLTNzMS4zLTMsMy0zTDQ1LDE5eiIvPiYjeGE7ICAgICAgICA8Y2lyY2xlIGN4PSIxOCIgY3k9IjE5IiByPSIzIi8+JiN4YTsgICAgICAgIDxwYXRoIGQ9Ik0zLDE5YzAsMS43LDEuMywzLDMsM3MzLTEuMywzLTNzLTEuMy0zLTMtM0wzLDE5eiIvPiYjeGE7ICAgIDwvZz4mI3hhOyAgICA8ZyBmaWxsPSIjRkZDMTA3Ij4mI3hhOyAgICAgICAgPHBvbHlnb24gcG9pbnRzPSIzMiwxMSAyNywxMSAyNywxOSAzMywxOSIvPiYjeGE7ICAgICAgICA8cG9seWdvbiBwb2ludHM9IjQyLDExIDM3LDExIDM5LDE5IDQ1LDE5Ii8+JiN4YTsgICAgICAgIDxwb2x5Z29uIHBvaW50cz0iMTYsMTEgMjEsMTEgMjEsMTkgMTUsMTkiLz4mI3hhOyAgICAgICAgPHBvbHlnb24gcG9pbnRzPSI2LDExIDExLDExIDksMTkgMywxOSIvPiYjeGE7ICAgIDwvZz4mI3hhOzwvc3ZnPg==" vertex="1" parent="1">
          <mxGeometry x="320.0011111111111" y="212" width="48" height="48" as="geometry" />
        </mxCell>
        <mxCell id="8--HhbSZYtI3ddgJnD71-17" value="Customer" style="shape=image;verticalLabelPosition=bottom;verticalAlign=top;imageAspect=0;aspect=fixed;image=data:image/svg+xml,PHN2ZyB4bWxucz0iaHR0cDovL3d3dy53My5vcmcvMjAwMC9zdmciIHZlcnNpb249IjEiIHZpZXdCb3g9IjAgMCA0OCA0OCIgZW5hYmxlLWJhY2tncm91bmQ9Im5ldyAwIDAgNDggNDgiPiYjeGE7ICAgIDxwb2x5Z29uIGZpbGw9IiNGRjk4MDAiIHBvaW50cz0iMjQsMzcgMTksMzEgMTksMjUgMjksMjUgMjksMzEiLz4mI3hhOyAgICA8ZyBmaWxsPSIjRkZBNzI2Ij4mI3hhOyAgICAgICAgPGNpcmNsZSBjeD0iMzMiIGN5PSIxOSIgcj0iMiIvPiYjeGE7ICAgICAgICA8Y2lyY2xlIGN4PSIxNSIgY3k9IjE5IiByPSIyIi8+JiN4YTsgICAgPC9nPiYjeGE7ICAgIDxwYXRoIGZpbGw9IiNGRkI3NEQiIGQ9Ik0zMywxM2MwLTcuNi0xOC01LTE4LDBjMCwxLjEsMCw1LjksMCw3YzAsNSw0LDksOSw5czktNCw5LTlDMzMsMTguOSwzMywxNC4xLDMzLDEzeiIvPiYjeGE7ICAgIDxwYXRoIGZpbGw9IiM0MjQyNDIiIGQ9Ik0yNCw0Yy02LjEsMC0xMCw0LjktMTAsMTFjMCwwLjgsMCwyLjMsMCwyLjNsMiwxLjd2LTVsMTItNGw0LDR2NWwyLTEuN2MwLDAsMC0xLjUsMC0yLjNjMC00LTEtOC02LTlsLTEtMiBIMjR6Ii8+JiN4YTsgICAgPGcgZmlsbD0iIzc4NDcxOSI+JiN4YTsgICAgICAgIDxjaXJjbGUgY3g9IjI4IiBjeT0iMTkiIHI9IjEiLz4mI3hhOyAgICAgICAgPGNpcmNsZSBjeD0iMjAiIGN5PSIxOSIgcj0iMSIvPiYjeGE7ICAgIDwvZz4mI3hhOyAgICA8cG9seWdvbiBmaWxsPSIjZmZmIiBwb2ludHM9IjI0LDQzIDE5LDMxIDI0LDMyIDI5LDMxIi8+JiN4YTsgICAgPHBvbHlnb24gZmlsbD0iI0QzMkYyRiIgcG9pbnRzPSIyMywzNSAyMi4zLDM5LjUgMjQsNDMuNSAyNS43LDM5LjUgMjUsMzUgMjYsMzQgMjQsMzIgMjIsMzQiLz4mI3hhOyAgICA8cGF0aCBmaWxsPSIjNTQ2RTdBIiBkPSJNMjksMzFMMjksMzFsLTUsMTJsLTUtMTJjMCwwLTExLDItMTEsMTNoMzJDNDAsMzMsMjksMzEsMjksMzF6Ii8+JiN4YTs8L3N2Zz4=;labelBackgroundColor=#ffffff;container=1;" parent="1" vertex="1">
          <mxGeometry x="140" y="30" width="48" height="48" as="geometry" />
        </mxCell>
        <mxCell id="_GWNJ5twluiKmYlob1LI-14" value="" style="group" vertex="1" connectable="0" parent="1">
          <mxGeometry x="821" y="216" width="110" height="68" as="geometry" />
        </mxCell>
        <mxCell id="_GWNJ5twluiKmYlob1LI-12" value="" style="aspect=fixed;perimeter=ellipsePerimeter;html=1;align=center;shadow=0;dashed=0;fontColor=#4277BB;labelBackgroundColor=#ffffff;fontSize=12;spacingTop=3;image;image=img/lib/ibm/management/api_management.svg;" vertex="1" parent="_GWNJ5twluiKmYlob1LI-14">
          <mxGeometry x="35" width="40" height="40" as="geometry" />
        </mxCell>
        <mxCell id="_GWNJ5twluiKmYlob1LI-13" value="API Management" style="text;html=1;align=center;verticalAlign=middle;resizable=0;points=[];autosize=1;strokeColor=none;fillColor=none;" vertex="1" parent="_GWNJ5twluiKmYlob1LI-14">
          <mxGeometry y="40" width="110" height="20" as="geometry" />
        </mxCell>
        <mxCell id="_GWNJ5twluiKmYlob1LI-20" value="" style="group" vertex="1" connectable="0" parent="1">
          <mxGeometry x="574" y="212" width="74" height="68" as="geometry" />
        </mxCell>
        <mxCell id="_GWNJ5twluiKmYlob1LI-21" value="" style="shape=image;verticalLabelPosition=bottom;verticalAlign=top;imageAspect=0;aspect=fixed;image=data:image/svg+xml,PHN2ZyB4bWxucz0iaHR0cDovL3d3dy53My5vcmcvMjAwMC9zdmciIHZlcnNpb249IjEiIHZpZXdCb3g9IjAgMCA0OCA0OCIgZW5hYmxlLWJhY2tncm91bmQ9Im5ldyAwIDAgNDggNDgiPiYjeGE7ICAgIDxnIGZpbGw9IiNGRjk4MDAiPiYjeGE7ICAgICAgICA8cmVjdCB4PSIxIiB5PSIzOCIgd2lkdGg9IjQ2IiBoZWlnaHQ9IjIiLz4mI3hhOyAgICAgICAgPHJlY3QgeD0iMjUiIHk9IjE4IiB3aWR0aD0iNCIgaGVpZ2h0PSIxNiIvPiYjeGE7ICAgICAgICA8cmVjdCB4PSIzMSIgeT0iMTgiIHdpZHRoPSI0IiBoZWlnaHQ9IjE2Ii8+JiN4YTsgICAgICAgIDxyZWN0IHg9IjM3IiB5PSIxOCIgd2lkdGg9IjQiIGhlaWdodD0iMTYiLz4mI3hhOyAgICAgICAgPHJlY3QgeD0iMTkiIHk9IjE4IiB3aWR0aD0iNCIgaGVpZ2h0PSIxNiIvPiYjeGE7ICAgICAgICA8cmVjdCB4PSIxMyIgeT0iMTgiIHdpZHRoPSI0IiBoZWlnaHQ9IjE2Ii8+JiN4YTsgICAgICAgIDxyZWN0IHg9IjciIHk9IjE4IiB3aWR0aD0iNCIgaGVpZ2h0PSIxNiIvPiYjeGE7ICAgICAgICA8cG9seWdvbiBwb2ludHM9IjQzLDE2IDUsMTYgNSwxMyAyNCw0IDQzLDEzIi8+JiN4YTsgICAgICAgIDxyZWN0IHg9IjUiIHk9IjM0IiB3aWR0aD0iMzgiIGhlaWdodD0iMiIvPiYjeGE7ICAgIDwvZz4mI3hhOyAgICA8ZyBmaWxsPSIjRUY2QzAwIj4mI3hhOyAgICAgICAgPHJlY3QgeD0iMjUiIHk9IjE2IiB3aWR0aD0iNCIgaGVpZ2h0PSIyIi8+JiN4YTsgICAgICAgIDxyZWN0IHg9IjMxIiB5PSIxNiIgd2lkdGg9IjQiIGhlaWdodD0iMiIvPiYjeGE7ICAgICAgICA8cmVjdCB4PSIzNyIgeT0iMTYiIHdpZHRoPSI0IiBoZWlnaHQ9IjIiLz4mI3hhOyAgICAgICAgPHJlY3QgeD0iMTkiIHk9IjE2IiB3aWR0aD0iNCIgaGVpZ2h0PSIyIi8+JiN4YTsgICAgICAgIDxyZWN0IHg9IjEzIiB5PSIxNiIgd2lkdGg9IjQiIGhlaWdodD0iMiIvPiYjeGE7ICAgICAgICA8cmVjdCB4PSI3IiB5PSIxNiIgd2lkdGg9IjQiIGhlaWdodD0iMiIvPiYjeGE7ICAgICAgICA8cmVjdCB4PSIzIiB5PSIzNiIgd2lkdGg9IjQyIiBoZWlnaHQ9IjIiLz4mI3hhOyAgICAgICAgPGNpcmNsZSBjeD0iMjQiIGN5PSIxMSIgcj0iMiIvPiYjeGE7ICAgIDwvZz4mI3hhOzwvc3ZnPg==;html=0;" vertex="1" parent="_GWNJ5twluiKmYlob1LI-20">
          <mxGeometry width="48" height="48" as="geometry" />
        </mxCell>
        <mxCell id="_GWNJ5twluiKmYlob1LI-22" value="EDC Bank CIMB" style="text;html=1;align=center;verticalAlign=middle;resizable=0;points=[];autosize=1;strokeColor=none;fillColor=none;" vertex="1" parent="_GWNJ5twluiKmYlob1LI-20">
          <mxGeometry x="-26" y="48" width="100" height="20" as="geometry" />
        </mxCell>
        <mxCell id="_GWNJ5twluiKmYlob1LI-23" value="" style="group" vertex="1" connectable="0" parent="1">
          <mxGeometry x="570" y="50" width="74" height="68" as="geometry" />
        </mxCell>
        <mxCell id="_GWNJ5twluiKmYlob1LI-24" value="" style="shape=image;verticalLabelPosition=bottom;verticalAlign=top;imageAspect=0;aspect=fixed;image=data:image/svg+xml,PHN2ZyB4bWxucz0iaHR0cDovL3d3dy53My5vcmcvMjAwMC9zdmciIHZlcnNpb249IjEiIHZpZXdCb3g9IjAgMCA0OCA0OCIgZW5hYmxlLWJhY2tncm91bmQ9Im5ldyAwIDAgNDggNDgiPiYjeGE7ICAgIDxnIGZpbGw9IiNGRjk4MDAiPiYjeGE7ICAgICAgICA8cmVjdCB4PSIxIiB5PSIzOCIgd2lkdGg9IjQ2IiBoZWlnaHQ9IjIiLz4mI3hhOyAgICAgICAgPHJlY3QgeD0iMjUiIHk9IjE4IiB3aWR0aD0iNCIgaGVpZ2h0PSIxNiIvPiYjeGE7ICAgICAgICA8cmVjdCB4PSIzMSIgeT0iMTgiIHdpZHRoPSI0IiBoZWlnaHQ9IjE2Ii8+JiN4YTsgICAgICAgIDxyZWN0IHg9IjM3IiB5PSIxOCIgd2lkdGg9IjQiIGhlaWdodD0iMTYiLz4mI3hhOyAgICAgICAgPHJlY3QgeD0iMTkiIHk9IjE4IiB3aWR0aD0iNCIgaGVpZ2h0PSIxNiIvPiYjeGE7ICAgICAgICA8cmVjdCB4PSIxMyIgeT0iMTgiIHdpZHRoPSI0IiBoZWlnaHQ9IjE2Ii8+JiN4YTsgICAgICAgIDxyZWN0IHg9IjciIHk9IjE4IiB3aWR0aD0iNCIgaGVpZ2h0PSIxNiIvPiYjeGE7ICAgICAgICA8cG9seWdvbiBwb2ludHM9IjQzLDE2IDUsMTYgNSwxMyAyNCw0IDQzLDEzIi8+JiN4YTsgICAgICAgIDxyZWN0IHg9IjUiIHk9IjM0IiB3aWR0aD0iMzgiIGhlaWdodD0iMiIvPiYjeGE7ICAgIDwvZz4mI3hhOyAgICA8ZyBmaWxsPSIjRUY2QzAwIj4mI3hhOyAgICAgICAgPHJlY3QgeD0iMjUiIHk9IjE2IiB3aWR0aD0iNCIgaGVpZ2h0PSIyIi8+JiN4YTsgICAgICAgIDxyZWN0IHg9IjMxIiB5PSIxNiIgd2lkdGg9IjQiIGhlaWdodD0iMiIvPiYjeGE7ICAgICAgICA8cmVjdCB4PSIzNyIgeT0iMTYiIHdpZHRoPSI0IiBoZWlnaHQ9IjIiLz4mI3hhOyAgICAgICAgPHJlY3QgeD0iMTkiIHk9IjE2IiB3aWR0aD0iNCIgaGVpZ2h0PSIyIi8+JiN4YTsgICAgICAgIDxyZWN0IHg9IjEzIiB5PSIxNiIgd2lkdGg9IjQiIGhlaWdodD0iMiIvPiYjeGE7ICAgICAgICA8cmVjdCB4PSI3IiB5PSIxNiIgd2lkdGg9IjQiIGhlaWdodD0iMiIvPiYjeGE7ICAgICAgICA8cmVjdCB4PSIzIiB5PSIzNiIgd2lkdGg9IjQyIiBoZWlnaHQ9IjIiLz4mI3hhOyAgICAgICAgPGNpcmNsZSBjeD0iMjQiIGN5PSIxMSIgcj0iMiIvPiYjeGE7ICAgIDwvZz4mI3hhOzwvc3ZnPg==;html=0;" vertex="1" parent="_GWNJ5twluiKmYlob1LI-23">
          <mxGeometry width="48" height="48" as="geometry" />
        </mxCell>
        <mxCell id="_GWNJ5twluiKmYlob1LI-25" value="EDC Bank BCA" style="text;html=1;align=center;verticalAlign=middle;resizable=0;points=[];autosize=1;strokeColor=none;fillColor=none;" vertex="1" parent="_GWNJ5twluiKmYlob1LI-23">
          <mxGeometry x="-26" y="48" width="100" height="20" as="geometry" />
        </mxCell>
        <mxCell id="_GWNJ5twluiKmYlob1LI-19" value="" style="group" vertex="1" connectable="0" parent="1">
          <mxGeometry x="579" y="380" width="69" height="68" as="geometry" />
        </mxCell>
        <mxCell id="_GWNJ5twluiKmYlob1LI-17" value="" style="shape=image;verticalLabelPosition=bottom;verticalAlign=top;imageAspect=0;aspect=fixed;image=data:image/svg+xml,PHN2ZyB4bWxucz0iaHR0cDovL3d3dy53My5vcmcvMjAwMC9zdmciIHZlcnNpb249IjEiIHZpZXdCb3g9IjAgMCA0OCA0OCIgZW5hYmxlLWJhY2tncm91bmQ9Im5ldyAwIDAgNDggNDgiPiYjeGE7ICAgIDxnIGZpbGw9IiNGRjk4MDAiPiYjeGE7ICAgICAgICA8cmVjdCB4PSIxIiB5PSIzOCIgd2lkdGg9IjQ2IiBoZWlnaHQ9IjIiLz4mI3hhOyAgICAgICAgPHJlY3QgeD0iMjUiIHk9IjE4IiB3aWR0aD0iNCIgaGVpZ2h0PSIxNiIvPiYjeGE7ICAgICAgICA8cmVjdCB4PSIzMSIgeT0iMTgiIHdpZHRoPSI0IiBoZWlnaHQ9IjE2Ii8+JiN4YTsgICAgICAgIDxyZWN0IHg9IjM3IiB5PSIxOCIgd2lkdGg9IjQiIGhlaWdodD0iMTYiLz4mI3hhOyAgICAgICAgPHJlY3QgeD0iMTkiIHk9IjE4IiB3aWR0aD0iNCIgaGVpZ2h0PSIxNiIvPiYjeGE7ICAgICAgICA8cmVjdCB4PSIxMyIgeT0iMTgiIHdpZHRoPSI0IiBoZWlnaHQ9IjE2Ii8+JiN4YTsgICAgICAgIDxyZWN0IHg9IjciIHk9IjE4IiB3aWR0aD0iNCIgaGVpZ2h0PSIxNiIvPiYjeGE7ICAgICAgICA8cG9seWdvbiBwb2ludHM9IjQzLDE2IDUsMTYgNSwxMyAyNCw0IDQzLDEzIi8+JiN4YTsgICAgICAgIDxyZWN0IHg9IjUiIHk9IjM0IiB3aWR0aD0iMzgiIGhlaWdodD0iMiIvPiYjeGE7ICAgIDwvZz4mI3hhOyAgICA8ZyBmaWxsPSIjRUY2QzAwIj4mI3hhOyAgICAgICAgPHJlY3QgeD0iMjUiIHk9IjE2IiB3aWR0aD0iNCIgaGVpZ2h0PSIyIi8+JiN4YTsgICAgICAgIDxyZWN0IHg9IjMxIiB5PSIxNiIgd2lkdGg9IjQiIGhlaWdodD0iMiIvPiYjeGE7ICAgICAgICA8cmVjdCB4PSIzNyIgeT0iMTYiIHdpZHRoPSI0IiBoZWlnaHQ9IjIiLz4mI3hhOyAgICAgICAgPHJlY3QgeD0iMTkiIHk9IjE2IiB3aWR0aD0iNCIgaGVpZ2h0PSIyIi8+JiN4YTsgICAgICAgIDxyZWN0IHg9IjEzIiB5PSIxNiIgd2lkdGg9IjQiIGhlaWdodD0iMiIvPiYjeGE7ICAgICAgICA8cmVjdCB4PSI3IiB5PSIxNiIgd2lkdGg9IjQiIGhlaWdodD0iMiIvPiYjeGE7ICAgICAgICA8cmVjdCB4PSIzIiB5PSIzNiIgd2lkdGg9IjQyIiBoZWlnaHQ9IjIiLz4mI3hhOyAgICAgICAgPGNpcmNsZSBjeD0iMjQiIGN5PSIxMSIgcj0iMiIvPiYjeGE7ICAgIDwvZz4mI3hhOzwvc3ZnPg==;html=0;" vertex="1" parent="_GWNJ5twluiKmYlob1LI-19">
          <mxGeometry width="48" height="48" as="geometry" />
        </mxCell>
        <mxCell id="_GWNJ5twluiKmYlob1LI-18" value="EDC Bank BNI" style="text;html=1;align=center;verticalAlign=middle;resizable=0;points=[];autosize=1;strokeColor=none;fillColor=none;" vertex="1" parent="_GWNJ5twluiKmYlob1LI-19">
          <mxGeometry x="-21" y="48" width="90" height="20" as="geometry" />
        </mxCell>
        <mxCell id="_GWNJ5twluiKmYlob1LI-27" value="Customer" style="shape=image;verticalLabelPosition=bottom;verticalAlign=top;imageAspect=0;aspect=fixed;image=data:image/svg+xml,PHN2ZyB4bWxucz0iaHR0cDovL3d3dy53My5vcmcvMjAwMC9zdmciIHZlcnNpb249IjEiIHZpZXdCb3g9IjAgMCA0OCA0OCIgZW5hYmxlLWJhY2tncm91bmQ9Im5ldyAwIDAgNDggNDgiPiYjeGE7ICAgIDxwb2x5Z29uIGZpbGw9IiNGRjk4MDAiIHBvaW50cz0iMjQsMzcgMTksMzEgMTksMjUgMjksMjUgMjksMzEiLz4mI3hhOyAgICA8ZyBmaWxsPSIjRkZBNzI2Ij4mI3hhOyAgICAgICAgPGNpcmNsZSBjeD0iMzMiIGN5PSIxOSIgcj0iMiIvPiYjeGE7ICAgICAgICA8Y2lyY2xlIGN4PSIxNSIgY3k9IjE5IiByPSIyIi8+JiN4YTsgICAgPC9nPiYjeGE7ICAgIDxwYXRoIGZpbGw9IiNGRkI3NEQiIGQ9Ik0zMywxM2MwLTcuNi0xOC01LTE4LDBjMCwxLjEsMCw1LjksMCw3YzAsNSw0LDksOSw5czktNCw5LTlDMzMsMTguOSwzMywxNC4xLDMzLDEzeiIvPiYjeGE7ICAgIDxwYXRoIGZpbGw9IiM0MjQyNDIiIGQ9Ik0yNCw0Yy02LjEsMC0xMCw0LjktMTAsMTFjMCwwLjgsMCwyLjMsMCwyLjNsMiwxLjd2LTVsMTItNGw0LDR2NWwyLTEuN2MwLDAsMC0xLjUsMC0yLjNjMC00LTEtOC02LTlsLTEtMiBIMjR6Ii8+JiN4YTsgICAgPGcgZmlsbD0iIzc4NDcxOSI+JiN4YTsgICAgICAgIDxjaXJjbGUgY3g9IjI4IiBjeT0iMTkiIHI9IjEiLz4mI3hhOyAgICAgICAgPGNpcmNsZSBjeD0iMjAiIGN5PSIxOSIgcj0iMSIvPiYjeGE7ICAgIDwvZz4mI3hhOyAgICA8cG9seWdvbiBmaWxsPSIjZmZmIiBwb2ludHM9IjI0LDQzIDE5LDMxIDI0LDMyIDI5LDMxIi8+JiN4YTsgICAgPHBvbHlnb24gZmlsbD0iI0QzMkYyRiIgcG9pbnRzPSIyMywzNSAyMi4zLDM5LjUgMjQsNDMuNSAyNS43LDM5LjUgMjUsMzUgMjYsMzQgMjQsMzIgMjIsMzQiLz4mI3hhOyAgICA8cGF0aCBmaWxsPSIjNTQ2RTdBIiBkPSJNMjksMzFMMjksMzFsLTUsMTJsLTUtMTJjMCwwLTExLDItMTEsMTNoMzJDNDAsMzMsMjksMzEsMjksMzF6Ii8+JiN4YTs8L3N2Zz4=;labelBackgroundColor=#ffffff;container=1;" vertex="1" parent="1">
          <mxGeometry x="10" y="212" width="48" height="48" as="geometry" />
        </mxCell>
        <mxCell id="_GWNJ5twluiKmYlob1LI-34" value="" style="edgeStyle=orthogonalEdgeStyle;rounded=0;orthogonalLoop=1;jettySize=auto;html=1;entryX=0.536;entryY=1.032;entryDx=0;entryDy=0;entryPerimeter=0;" edge="1" parent="1" source="_GWNJ5twluiKmYlob1LI-17" target="_GWNJ5twluiKmYlob1LI-13">
          <mxGeometry relative="1" as="geometry">
            <mxPoint x="669.5" y="394" as="targetPoint" />
            <Array as="points">
              <mxPoint x="880" y="410" />
            </Array>
          </mxGeometry>
        </mxCell>
        <mxCell id="_GWNJ5twluiKmYlob1LI-36" value="" style="edgeStyle=orthogonalEdgeStyle;rounded=0;orthogonalLoop=1;jettySize=auto;html=1;entryX=0;entryY=0.5;entryDx=0;entryDy=0;" edge="1" parent="1" source="_GWNJ5twluiKmYlob1LI-21" target="_GWNJ5twluiKmYlob1LI-12">
          <mxGeometry relative="1" as="geometry">
            <mxPoint x="850" y="244" as="targetPoint" />
          </mxGeometry>
        </mxCell>
        <mxCell id="_GWNJ5twluiKmYlob1LI-38" value="" style="edgeStyle=orthogonalEdgeStyle;rounded=0;orthogonalLoop=1;jettySize=auto;html=1;entryX=0.5;entryY=0;entryDx=0;entryDy=0;" edge="1" parent="1" source="_GWNJ5twluiKmYlob1LI-24" target="_GWNJ5twluiKmYlob1LI-12">
          <mxGeometry relative="1" as="geometry">
            <mxPoint x="880" y="210" as="targetPoint" />
          </mxGeometry>
        </mxCell>
        <mxCell id="_GWNJ5twluiKmYlob1LI-48" value="" style="edgeStyle=orthogonalEdgeStyle;rounded=0;orthogonalLoop=1;jettySize=auto;html=1;entryX=0;entryY=0.5;entryDx=0;entryDy=0;" edge="1" parent="1" source="_GWNJ5twluiKmYlob1LI-12" target="_GWNJ5twluiKmYlob1LI-45">
          <mxGeometry relative="1" as="geometry">
            <mxPoint x="936" y="236" as="targetPoint" />
          </mxGeometry>
        </mxCell>
        <mxCell id="_GWNJ5twluiKmYlob1LI-49" value="" style="group" vertex="1" connectable="0" parent="1">
          <mxGeometry x="1054" y="217" width="90" height="58" as="geometry" />
        </mxCell>
        <mxCell id="_GWNJ5twluiKmYlob1LI-45" value="" style="aspect=fixed;perimeter=ellipsePerimeter;html=1;align=center;shadow=0;dashed=0;fontColor=#4277BB;labelBackgroundColor=#ffffff;fontSize=12;spacingTop=3;image;image=img/lib/ibm/infrastructure/event_feed.svg;container=1;" vertex="1" parent="_GWNJ5twluiKmYlob1LI-49">
          <mxGeometry x="26" width="38" height="38" as="geometry" />
        </mxCell>
        <mxCell id="_GWNJ5twluiKmYlob1LI-46" value="Reconciliation" style="text;html=1;align=center;verticalAlign=middle;resizable=0;points=[];autosize=1;strokeColor=none;fillColor=none;" vertex="1" parent="_GWNJ5twluiKmYlob1LI-49">
          <mxGeometry y="38" width="90" height="20" as="geometry" />
        </mxCell>
        <mxCell id="_GWNJ5twluiKmYlob1LI-52" value="" style="edgeStyle=orthogonalEdgeStyle;rounded=0;orthogonalLoop=1;jettySize=auto;html=1;entryX=0;entryY=0.5;entryDx=0;entryDy=0;" edge="1" parent="1" source="_GWNJ5twluiKmYlob1LI-45" target="_GWNJ5twluiKmYlob1LI-50">
          <mxGeometry relative="1" as="geometry">
            <mxPoint x="1157" y="236" as="targetPoint" />
          </mxGeometry>
        </mxCell>
        <mxCell id="_GWNJ5twluiKmYlob1LI-54" value="" style="group" vertex="1" connectable="0" parent="1">
          <mxGeometry x="1190" y="214.5" width="170" height="43" as="geometry" />
        </mxCell>
        <mxCell id="_GWNJ5twluiKmYlob1LI-50" value="" style="aspect=fixed;perimeter=ellipsePerimeter;html=1;align=center;shadow=0;dashed=0;fontColor=#4277BB;labelBackgroundColor=#ffffff;fontSize=12;spacingTop=3;image;image=img/lib/ibm/infrastructure/channels.svg;container=1;" vertex="1" parent="_GWNJ5twluiKmYlob1LI-54">
          <mxGeometry x="50" width="43" height="43" as="geometry" />
        </mxCell>
        <mxCell id="_GWNJ5twluiKmYlob1LI-53" value="&lt;div style=&quot;text-align: center ; font-size: 11px&quot;&gt;&lt;span style=&quot;font-family: &amp;#34;helvetica&amp;#34;&quot;&gt;&lt;font style=&quot;font-size: 11px&quot;&gt;Payment2Go&lt;/font&gt;&lt;/span&gt;&lt;/div&gt;&lt;span style=&quot;color: rgb(0 , 0 , 0) ; font-family: &amp;#34;helvetica&amp;#34; ; font-style: normal ; font-weight: 400 ; letter-spacing: normal ; text-indent: 0px ; text-transform: none ; word-spacing: 0px ; background-color: rgb(248 , 249 , 250) ; display: inline ; float: none ; font-size: 11px&quot;&gt;&lt;div style=&quot;text-align: center&quot;&gt;&lt;font style=&quot;font-size: 11px&quot;&gt;(Terminal Management System)&lt;/font&gt;&lt;/div&gt;&lt;/span&gt;" style="text;whiteSpace=wrap;html=1;" vertex="1" parent="_GWNJ5twluiKmYlob1LI-54">
          <mxGeometry y="34.5" width="170" height="2" as="geometry" />
        </mxCell>
        <mxCell id="_GWNJ5twluiKmYlob1LI-57" value="" style="group" vertex="1" connectable="0" parent="1">
          <mxGeometry x="1390" y="400" width="70.5" height="50.13" as="geometry" />
        </mxCell>
        <mxCell id="_GWNJ5twluiKmYlob1LI-55" value="" style="sketch=0;pointerEvents=1;shadow=0;dashed=0;html=1;strokeColor=none;fillColor=#505050;labelPosition=center;verticalLabelPosition=bottom;verticalAlign=top;outlineConnect=0;align=center;shape=mxgraph.office.users.csv_file;fontSize=11;" vertex="1" parent="_GWNJ5twluiKmYlob1LI-57">
          <mxGeometry x="12.141666666666666" width="46.21666666666667" height="33.68109375" as="geometry" />
        </mxCell>
        <mxCell id="_GWNJ5twluiKmYlob1LI-56" value="Billing Report" style="text;html=1;align=center;verticalAlign=middle;resizable=0;points=[];autosize=1;strokeColor=none;fillColor=none;" vertex="1" parent="_GWNJ5twluiKmYlob1LI-57">
          <mxGeometry y="34.464375" width="90" height="20" as="geometry" />
        </mxCell>
        <mxCell id="_GWNJ5twluiKmYlob1LI-62" value="" style="edgeStyle=orthogonalEdgeStyle;rounded=0;orthogonalLoop=1;jettySize=auto;html=1;fontSize=11;" edge="1" parent="1" source="_GWNJ5twluiKmYlob1LI-58">
          <mxGeometry relative="1" as="geometry">
            <mxPoint x="1453" y="425" as="targetPoint" />
          </mxGeometry>
        </mxCell>
        <mxCell id="_GWNJ5twluiKmYlob1LI-58" value="Sentra Billing" style="shape=image;verticalLabelPosition=bottom;verticalAlign=top;imageAspect=0;aspect=fixed;image=data:image/svg+xml,PHN2ZyB4bWxucz0iaHR0cDovL3d3dy53My5vcmcvMjAwMC9zdmciIHZlcnNpb249IjEiIHZpZXdCb3g9IjAgMCA0OCA0OCIgZW5hYmxlLWJhY2tncm91bmQ9Im5ldyAwIDAgNDggNDgiPiYjeGE7ICAgIDxwYXRoIGZpbGw9IiM3Q0IzNDIiIGQ9Ik0yNCw0QzEzLDQsNCwxMyw0LDI0czksMjAsMjAsMjBzMjAtOSwyMC0yMFMzNSw0LDI0LDR6Ii8+JiN4YTsgICAgPHBhdGggZmlsbD0iIzAyNzdCRCIgZD0iTTQ1LDI0YzAsMTEuNy05LjUsMjEtMjEsMjFTMywzNS43LDMsMjRTMTIuMywzLDI0LDNTNDUsMTIuMyw0NSwyNHogTTIzLjgsMzMuN2MwLTAuNC0wLjItMC42LTAuNi0wLjggYy0xLjMtMC40LTIuNS0wLjQtMy42LTEuNWMtMC4yLTAuNC0wLjItMC44LTAuNC0xLjNjLTAuNC0wLjQtMS41LTAuNi0yLjEtMC44Yy0wLjgsMC0xLjcsMC0yLjcsMGMtMC40LDAtMS4xLDAtMS41LDAgYy0wLjYtMC4yLTEuMS0xLjEtMS41LTEuN2MwLTAuMiwwLTAuNi0wLjQtMC42Yy0wLjQtMC4yLTAuOCwwLjItMS4zLDBjLTAuMi0wLjItMC4yLTAuNC0wLjItMC42YzAtMC42LDAuNC0xLjMsMC44LTEuNyBjMC42LTAuNCwxLjMsMC4yLDEuOSwwLjJjMC4yLDAsMC4yLDAsMC40LDAuMmMwLjYsMC4yLDAuOCwxLDAuOCwxLjdjMCwwLjIsMCwwLjQsMCwwLjRjMCwwLjIsMC4yLDAuMiwwLjQsMC4yIGMwLjItMS4xLDAuMi0yLjEsMC40LTMuMmMwLTEuMywxLjMtMi41LDIuMy0yLjljMC40LTAuMiwwLjYsMC4yLDEuMSwwYzEuMy0wLjQsNC40LTEuNywzLjgtMy40Yy0wLjQtMS41LTEuNy0yLjktMy40LTIuNyBjLTAuNCwwLjItMC42LDAuNC0xLDAuNmMtMC42LDAuNC0xLjksMS43LTIuNSwxLjdjLTEuMS0wLjItMS4xLTEuNy0wLjgtMi4zYzAuMi0wLjgsMi4xLTMuNiwzLjQtMy4xYzAuMiwwLjIsMC42LDAuNiwwLjgsMC44IGMwLjQsMC4yLDEuMSwwLjIsMS43LDAuMmMwLjIsMCwwLjQsMCwwLjYtMC4yYzAuMi0wLjIsMC4yLTAuMiwwLjItMC40YzAtMC42LTAuNi0xLjMtMS0xLjdjLTAuNC0wLjQtMS4xLTAuOC0xLjctMS4xIGMtMi4xLTAuNi01LjUsMC4yLTcuMSwxLjdzLTIuOSw0LTMuOCw2LjFjLTAuNCwxLjMtMC44LDIuOS0xLDQuNGMtMC4yLDEtMC40LDEuOSwwLjIsMi45YzAuNiwxLjMsMS45LDIuNSwzLjIsMy40IGMwLjgsMC42LDIuNSwwLjYsMy40LDEuN2MwLjYsMC44LDAuNCwxLjksMC40LDIuOWMwLDEuMywwLjgsMi4zLDEuMywzLjRjMC4yLDAuNiwwLjQsMS41LDAuNiwyLjFjMCwwLjIsMC4yLDEuNSwwLjIsMS43IGMxLjMsMC42LDIuMywxLjMsMy44LDEuN2MwLjIsMCwxLTEuMywxLTEuNWMwLjYtMC42LDEuMS0xLjUsMS43LTEuOWMwLjQtMC4yLDAuOC0wLjQsMS4zLTAuOGMwLjQtMC40LDAuNi0xLjMsMC44LTEuOSBDMjMuOCwzNS4xLDI0LDM0LjMsMjMuOCwzMy43eiBNMjQuMiwxNC4zYzAuMiwwLDAuNC0wLjIsMC44LTAuNGMwLjYtMC40LDEuMy0xLjEsMS45LTEuNWMwLjYtMC40LDEuMy0xLjEsMS43LTEuNSBjMC42LTAuNCwxLjEtMS4zLDEuMy0xLjljMC4yLTAuNCwwLjgtMS4zLDAuNi0xLjljLTAuMi0wLjQtMS4zLTAuNi0xLjctMC44Yy0xLjctMC40LTMuMS0wLjYtNC44LTAuNmMtMC42LDAtMS41LDAuMi0xLjcsMC44IGMtMC4yLDEuMSwwLjYsMC44LDEuNSwxLjFjMCwwLDAuMiwxLjcsMC4yLDEuOWMwLjIsMS0wLjQsMS43LTAuNCwyLjdjMCwwLjYsMCwxLjcsMC40LDIuMUwyNC4yLDE0LjN6IE00MS44LDI5IGMwLjItMC40LDAuMi0xLjEsMC40LTEuNWMwLjItMSwwLjItMi4xLDAuMi0zLjFjMC0yLjEtMC4yLTQuMi0wLjgtNi4xYy0wLjQtMC42LTAuNi0xLjMtMC44LTEuOWMtMC40LTEuMS0xLTIuMS0xLjktMi45IGMtMC44LTEuMS0xLjktNC0zLjgtMy4xYy0wLjYsMC4yLTEsMS0xLjUsMS41Yy0wLjQsMC42LTAuOCwxLjMtMS4zLDEuOWMtMC4yLDAuMi0wLjQsMC42LTAuMiwwLjhjMCwwLjIsMC4yLDAuMiwwLjQsMC4yIGMwLjQsMC4yLDAuNiwwLjIsMSwwLjRjMC4yLDAsMC40LDAuMiwwLjIsMC40YzAsMCwwLDAuMi0wLjIsMC4yYy0xLDEuMS0yLjEsMS45LTMuMSwyLjljLTAuMiwwLjItMC40LDAuNi0wLjQsMC44IGMwLDAuMiwwLjIsMC4yLDAuMiwwLjRjMCwwLjItMC4yLDAuMi0wLjQsMC40Yy0wLjQsMC4yLTAuOCwwLjQtMS4xLDAuNmMtMC4yLDAuNCwwLDEuMS0wLjIsMS41Yy0wLjIsMS4xLTAuOCwxLjktMS4zLDIuOSBjLTAuNCwwLjYtMC42LDEuMy0xLDEuOWMwLDAuOC0wLjIsMS41LDAuMiwyLjFjMSwxLjUsMi45LDAuNiw0LjQsMS4zYzAuNCwwLjIsMC44LDAuMiwxLjEsMC42YzAuNiwwLjYsMC42LDEuNywwLjgsMi4zIGMwLjIsMC44LDAuNCwxLjcsMC44LDIuNWMwLjIsMSwwLjYsMi4xLDAuOCwyLjljMS45LTEuNSwzLjYtMy4xLDQuOC01LjJDNDAuNiwzMi40LDQxLjIsMzAuNyw0MS44LDI5eiIvPiYjeGE7PC9zdmc+;labelBackgroundColor=#ffffff;container=1;" vertex="1" parent="1">
          <mxGeometry x="1730" y="401" width="48" height="48" as="geometry" />
        </mxCell>
        <mxCell id="_GWNJ5twluiKmYlob1LI-60" value="" style="edgeStyle=orthogonalEdgeStyle;rounded=0;orthogonalLoop=1;jettySize=auto;html=1;fontSize=11;entryX=0.5;entryY=0;entryDx=0;entryDy=0;" edge="1" parent="1" target="_GWNJ5twluiKmYlob1LI-58">
          <mxGeometry relative="1" as="geometry">
            <mxPoint x="1261" y="290" as="sourcePoint" />
            <mxPoint x="1260" y="510" as="targetPoint" />
            <Array as="points">
              <mxPoint x="1261" y="320" />
              <mxPoint x="1754" y="320" />
            </Array>
          </mxGeometry>
        </mxCell>
        <mxCell id="_GWNJ5twluiKmYlob1LI-64" value="" style="edgeStyle=orthogonalEdgeStyle;rounded=0;orthogonalLoop=1;jettySize=auto;html=1;fontSize=11;" edge="1" parent="1" source="_GWNJ5twluiKmYlob1LI-55">
          <mxGeometry relative="1" as="geometry">
            <mxPoint x="1200" y="480" as="targetPoint" />
          </mxGeometry>
        </mxCell>
        <mxCell id="_GWNJ5twluiKmYlob1LI-75" value="" style="edgeStyle=orthogonalEdgeStyle;rounded=0;orthogonalLoop=1;jettySize=auto;html=1;fontSize=11;entryX=0.512;entryY=1.113;entryDx=0;entryDy=0;entryPerimeter=0;" edge="1" parent="1" target="_GWNJ5twluiKmYlob1LI-46">
          <mxGeometry relative="1" as="geometry">
            <mxPoint x="950" y="1396" as="sourcePoint" />
            <mxPoint x="412.0011111111112" y="726" as="targetPoint" />
            <Array as="points">
              <mxPoint x="904" y="1396" />
              <mxPoint x="1100" y="1396" />
            </Array>
          </mxGeometry>
        </mxCell>
        <mxCell id="_GWNJ5twluiKmYlob1LI-86" value="" style="edgeStyle=orthogonalEdgeStyle;rounded=0;orthogonalLoop=1;jettySize=auto;html=1;fontSize=11;entryX=0.515;entryY=1.167;entryDx=0;entryDy=0;entryPerimeter=0;exitX=1;exitY=0.5;exitDx=0;exitDy=0;" edge="1" parent="1" source="_GWNJ5twluiKmYlob1LI-160" target="_GWNJ5twluiKmYlob1LI-46">
          <mxGeometry relative="1" as="geometry">
            <mxPoint x="368.0011111111112" y="1036" as="sourcePoint" />
            <mxPoint x="1100" y="670" as="targetPoint" />
          </mxGeometry>
        </mxCell>
        <mxCell id="_GWNJ5twluiKmYlob1LI-119" style="edgeStyle=none;rounded=0;orthogonalLoop=1;jettySize=auto;html=1;sourcePerimeterSpacing=5;endArrow=none;endFill=0;targetPerimeterSpacing=5;" edge="1" parent="1" source="_GWNJ5twluiKmYlob1LI-123">
          <mxGeometry relative="1" as="geometry">
            <mxPoint x="328" y="1418.8595041322315" as="targetPoint" />
          </mxGeometry>
        </mxCell>
        <mxCell id="_GWNJ5twluiKmYlob1LI-120" style="edgeStyle=none;rounded=0;orthogonalLoop=1;jettySize=auto;html=1;sourcePerimeterSpacing=5;endArrow=none;endFill=0;targetPerimeterSpacing=5;exitX=1;exitY=0.5;exitDx=0;exitDy=0;" edge="1" parent="1" source="_GWNJ5twluiKmYlob1LI-143" target="_GWNJ5twluiKmYlob1LI-129">
          <mxGeometry relative="1" as="geometry">
            <mxPoint x="243" y="1311.9569685954873" as="sourcePoint" />
            <mxPoint x="329.6111111111111" y="1375" as="targetPoint" />
          </mxGeometry>
        </mxCell>
        <mxCell id="_GWNJ5twluiKmYlob1LI-121" style="rounded=0;orthogonalLoop=1;jettySize=auto;html=1;endArrow=none;endFill=0;sourcePerimeterSpacing=5;targetPerimeterSpacing=5;entryX=0;entryY=0;entryDx=0;entryDy=0;" edge="1" parent="1" source="_GWNJ5twluiKmYlob1LI-130" target="_GWNJ5twluiKmYlob1LI-129">
          <mxGeometry relative="1" as="geometry">
            <mxPoint x="375.06140350877195" y="1375" as="targetPoint" />
          </mxGeometry>
        </mxCell>
        <mxCell id="_GWNJ5twluiKmYlob1LI-122" style="edgeStyle=none;rounded=0;orthogonalLoop=1;jettySize=auto;html=1;sourcePerimeterSpacing=5;endArrow=none;endFill=0;targetPerimeterSpacing=5;exitX=1;exitY=0.5;exitDx=0;exitDy=0;entryX=0;entryY=0.25;entryDx=0;entryDy=0;" edge="1" parent="1" source="_GWNJ5twluiKmYlob1LI-124" target="_GWNJ5twluiKmYlob1LI-129">
          <mxGeometry relative="1" as="geometry">
            <mxPoint x="352.3599999999999" y="1375" as="targetPoint" />
          </mxGeometry>
        </mxCell>
        <mxCell id="_GWNJ5twluiKmYlob1LI-123" value="Order Online&#xa;(Gojek and Grab)" style="shape=image;verticalLabelPosition=bottom;verticalAlign=top;imageAspect=0;aspect=fixed;image=data:image/svg+xml,PHN2ZyB4bWxucz0iaHR0cDovL3d3dy53My5vcmcvMjAwMC9zdmciIHZlcnNpb249IjEiIHZpZXdCb3g9IjAgMCA0OCA0OCIgZW5hYmxlLWJhY2tncm91bmQ9Im5ldyAwIDAgNDggNDgiPiYjeGE7ICAgIDxwYXRoIGZpbGw9IiMzNzQ3NEYiIGQ9Ik00LDM5VjdjMC0yLjIsMS44LTQsNC00aDIyYzIuMiwwLDQsMS44LDQsNHYzMmMwLDIuMi0xLjgsNC00LDRIOEM1LjgsNDMsNCw0MS4yLDQsMzl6Ii8+JiN4YTsgICAgPHBhdGggZmlsbD0iI0JCREVGQiIgZD0iTTMwLDZIOEM3LjQsNiw3LDYuNCw3LDd2MjljMCwwLjYsMC40LDEsMSwxaDIyYzAuNiwwLDEtMC40LDEtMVY3QzMxLDYuNCwzMC42LDYsMzAsNnoiLz4mI3hhOyAgICA8cmVjdCB4PSIxNSIgeT0iMzkiIGZpbGw9IiM3ODkwOUMiIHdpZHRoPSI2IiBoZWlnaHQ9IjIiLz4mI3hhOyAgICA8cGF0aCBmaWxsPSIjRTM4OTM5IiBkPSJNMjQsNDFWMTdjMC0yLjIsMS44LTQsNC00aDEyYzIuMiwwLDQsMS44LDQsNHYyNGMwLDIuMi0xLjgsNC00LDRIMjhDMjUuOCw0NSwyNCw0My4yLDI0LDQxeiIvPiYjeGE7ICAgIDxwYXRoIGZpbGw9IiNGRkYzRTAiIGQ9Ik00MCwxNkgyOGMtMC42LDAtMSwwLjQtMSwxdjIyYzAsMC42LDAuNCwxLDEsMWgxMmMwLjYsMCwxLTAuNCwxLTFWMTdDNDEsMTYuNCw0MC42LDE2LDQwLDE2eiIvPiYjeGE7ICAgIDxjaXJjbGUgZmlsbD0iI0E2NjQyQSIgY3g9IjM0IiBjeT0iNDIuNSIgcj0iMS41Ii8+JiN4YTs8L3N2Zz4=;labelBackgroundColor=#ffffff;container=1;" vertex="1" parent="1">
          <mxGeometry x="212" y="1442" width="48" height="48" as="geometry" />
        </mxCell>
        <mxCell id="_GWNJ5twluiKmYlob1LI-124" value="Customer" style="shape=image;verticalLabelPosition=bottom;verticalAlign=top;imageAspect=0;aspect=fixed;image=data:image/svg+xml,PHN2ZyB4bWxucz0iaHR0cDovL3d3dy53My5vcmcvMjAwMC9zdmciIHZlcnNpb249IjEiIHZpZXdCb3g9IjAgMCA0OCA0OCIgZW5hYmxlLWJhY2tncm91bmQ9Im5ldyAwIDAgNDggNDgiPiYjeGE7ICAgIDxwb2x5Z29uIGZpbGw9IiNGRjk4MDAiIHBvaW50cz0iMjQsMzcgMTksMzEgMTksMjUgMjksMjUgMjksMzEiLz4mI3hhOyAgICA8ZyBmaWxsPSIjRkZBNzI2Ij4mI3hhOyAgICAgICAgPGNpcmNsZSBjeD0iMzMiIGN5PSIxOSIgcj0iMiIvPiYjeGE7ICAgICAgICA8Y2lyY2xlIGN4PSIxNSIgY3k9IjE5IiByPSIyIi8+JiN4YTsgICAgPC9nPiYjeGE7ICAgIDxwYXRoIGZpbGw9IiNGRkI3NEQiIGQ9Ik0zMywxM2MwLTcuNi0xOC01LTE4LDBjMCwxLjEsMCw1LjksMCw3YzAsNSw0LDksOSw5czktNCw5LTlDMzMsMTguOSwzMywxNC4xLDMzLDEzeiIvPiYjeGE7ICAgIDxwYXRoIGZpbGw9IiM0MjQyNDIiIGQ9Ik0yNCw0Yy02LjEsMC0xMCw0LjktMTAsMTFjMCwwLjgsMCwyLjMsMCwyLjNsMiwxLjd2LTVsMTItNGw0LDR2NWwyLTEuN2MwLDAsMC0xLjUsMC0yLjNjMC00LTEtOC02LTlsLTEtMiBIMjR6Ii8+JiN4YTsgICAgPGcgZmlsbD0iIzc4NDcxOSI+JiN4YTsgICAgICAgIDxjaXJjbGUgY3g9IjI4IiBjeT0iMTkiIHI9IjEiLz4mI3hhOyAgICAgICAgPGNpcmNsZSBjeD0iMjAiIGN5PSIxOSIgcj0iMSIvPiYjeGE7ICAgIDwvZz4mI3hhOyAgICA8cG9seWdvbiBmaWxsPSIjZmZmIiBwb2ludHM9IjI0LDQzIDE5LDMxIDI0LDMyIDI5LDMxIi8+JiN4YTsgICAgPHBvbHlnb24gZmlsbD0iI0QzMkYyRiIgcG9pbnRzPSIyMywzNSAyMi4zLDM5LjUgMjQsNDMuNSAyNS43LDM5LjUgMjUsMzUgMjYsMzQgMjQsMzIgMjIsMzQiLz4mI3hhOyAgICA8cGF0aCBmaWxsPSIjNTQ2RTdBIiBkPSJNMjksMzFMMjksMzFsLTUsMTJsLTUtMTJjMCwwLTExLDItMTEsMTNoMzJDNDAsMzMsMjksMzEsMjksMzF6Ii8+JiN4YTs8L3N2Zz4=;labelBackgroundColor=#ffffff;container=1;" vertex="1" parent="1">
          <mxGeometry x="20" y="1270" width="48" height="48" as="geometry" />
        </mxCell>
        <mxCell id="_GWNJ5twluiKmYlob1LI-125" value="Merchant" style="text;html=1;align=center;verticalAlign=middle;resizable=0;points=[];autosize=1;strokeColor=none;fillColor=none;" vertex="1" parent="1">
          <mxGeometry x="320" y="1420" width="70" height="20" as="geometry" />
        </mxCell>
        <mxCell id="_GWNJ5twluiKmYlob1LI-126" value="" style="edgeStyle=orthogonalEdgeStyle;rounded=0;orthogonalLoop=1;jettySize=auto;html=1;exitX=0.492;exitY=1.106;exitDx=0;exitDy=0;exitPerimeter=0;entryX=0.021;entryY=0.625;entryDx=0;entryDy=0;entryPerimeter=0;" edge="1" parent="1" source="_GWNJ5twluiKmYlob1LI-125" target="_GWNJ5twluiKmYlob1LI-141">
          <mxGeometry relative="1" as="geometry">
            <mxPoint x="560" y="1560" as="targetPoint" />
            <Array as="points">
              <mxPoint x="354" y="1570" />
            </Array>
          </mxGeometry>
        </mxCell>
        <mxCell id="_GWNJ5twluiKmYlob1LI-127" value="" style="edgeStyle=orthogonalEdgeStyle;rounded=0;orthogonalLoop=1;jettySize=auto;html=1;entryX=0;entryY=0.5;entryDx=0;entryDy=0;" edge="1" parent="1" source="_GWNJ5twluiKmYlob1LI-129" target="_GWNJ5twluiKmYlob1LI-135">
          <mxGeometry relative="1" as="geometry">
            <mxPoint x="422.0011111111112" y="1396" as="targetPoint" />
          </mxGeometry>
        </mxCell>
        <mxCell id="_GWNJ5twluiKmYlob1LI-128" value="" style="edgeStyle=orthogonalEdgeStyle;rounded=0;orthogonalLoop=1;jettySize=auto;html=1;entryX=0;entryY=0.5;entryDx=0;entryDy=0;exitX=0.5;exitY=0;exitDx=0;exitDy=0;" edge="1" parent="1" source="_GWNJ5twluiKmYlob1LI-129" target="_GWNJ5twluiKmYlob1LI-138">
          <mxGeometry relative="1" as="geometry">
            <mxPoint x="354.00111111111096" y="1298" as="targetPoint" />
          </mxGeometry>
        </mxCell>
        <mxCell id="_GWNJ5twluiKmYlob1LI-129" value="" style="shape=image;verticalLabelPosition=bottom;verticalAlign=top;imageAspect=0;aspect=fixed;image=data:image/svg+xml,PHN2ZyB4bWxucz0iaHR0cDovL3d3dy53My5vcmcvMjAwMC9zdmciIHZlcnNpb249IjEiIHZpZXdCb3g9IjAgMCA0OCA0OCIgZW5hYmxlLWJhY2tncm91bmQ9Im5ldyAwIDAgNDggNDgiPiYjeGE7ICAgIDxyZWN0IHg9IjUiIHk9IjE5IiBmaWxsPSIjQ0ZEOERDIiB3aWR0aD0iMzgiIGhlaWdodD0iMTkiLz4mI3hhOyAgICA8cmVjdCB4PSI1IiB5PSIzOCIgZmlsbD0iI0IwQkVDNSIgd2lkdGg9IjM4IiBoZWlnaHQ9IjQiLz4mI3hhOyAgICA8cmVjdCB4PSIyNyIgeT0iMjQiIGZpbGw9IiM0NTVBNjQiIHdpZHRoPSIxMiIgaGVpZ2h0PSIxOCIvPiYjeGE7ICAgIDxyZWN0IHg9IjkiIHk9IjI0IiBmaWxsPSIjRTNGMkZEIiB3aWR0aD0iMTQiIGhlaWdodD0iMTEiLz4mI3hhOyAgICA8cmVjdCB4PSIxMCIgeT0iMjUiIGZpbGw9IiMxRTg4RTUiIHdpZHRoPSIxMiIgaGVpZ2h0PSI5Ii8+JiN4YTsgICAgPHBhdGggZmlsbD0iIzkwQTRBRSIgZD0iTTM2LjUsMzMuNWMtMC4zLDAtMC41LDAuMi0wLjUsMC41djJjMCwwLjMsMC4yLDAuNSwwLjUsMC41UzM3LDM2LjMsMzcsMzZ2LTJDMzcsMzMuNywzNi44LDMzLjUsMzYuNSwzMy41eiIvPiYjeGE7ICAgIDxnIGZpbGw9IiM1NThCMkYiPiYjeGE7ICAgICAgICA8Y2lyY2xlIGN4PSIyNCIgY3k9IjE5IiByPSIzIi8+JiN4YTsgICAgICAgIDxjaXJjbGUgY3g9IjM2IiBjeT0iMTkiIHI9IjMiLz4mI3hhOyAgICAgICAgPGNpcmNsZSBjeD0iMTIiIGN5PSIxOSIgcj0iMyIvPiYjeGE7ICAgIDwvZz4mI3hhOyAgICA8cGF0aCBmaWxsPSIjN0NCMzQyIiBkPSJNNDAsNkg4QzYuOSw2LDYsNi45LDYsOHYzaDM2VjhDNDIsNi45LDQxLjEsNiw0MCw2eiIvPiYjeGE7ICAgIDxyZWN0IHg9IjIxIiB5PSIxMSIgZmlsbD0iIzdDQjM0MiIgd2lkdGg9IjYiIGhlaWdodD0iOCIvPiYjeGE7ICAgIDxwb2x5Z29uIGZpbGw9IiM3Q0IzNDIiIHBvaW50cz0iMzcsMTEgMzIsMTEgMzMsMTkgMzksMTkiLz4mI3hhOyAgICA8cG9seWdvbiBmaWxsPSIjN0NCMzQyIiBwb2ludHM9IjExLDExIDE2LDExIDE1LDE5IDksMTkiLz4mI3hhOyAgICA8ZyBmaWxsPSIjRkZBMDAwIj4mI3hhOyAgICAgICAgPGNpcmNsZSBjeD0iMzAiIGN5PSIxOSIgcj0iMyIvPiYjeGE7ICAgICAgICA8cGF0aCBkPSJNNDUsMTljMCwxLjctMS4zLDMtMywzcy0zLTEuMy0zLTNzMS4zLTMsMy0zTDQ1LDE5eiIvPiYjeGE7ICAgICAgICA8Y2lyY2xlIGN4PSIxOCIgY3k9IjE5IiByPSIzIi8+JiN4YTsgICAgICAgIDxwYXRoIGQ9Ik0zLDE5YzAsMS43LDEuMywzLDMsM3MzLTEuMywzLTNzLTEuMy0zLTMtM0wzLDE5eiIvPiYjeGE7ICAgIDwvZz4mI3hhOyAgICA8ZyBmaWxsPSIjRkZDMTA3Ij4mI3hhOyAgICAgICAgPHBvbHlnb24gcG9pbnRzPSIzMiwxMSAyNywxMSAyNywxOSAzMywxOSIvPiYjeGE7ICAgICAgICA8cG9seWdvbiBwb2ludHM9IjQyLDExIDM3LDExIDM5LDE5IDQ1LDE5Ii8+JiN4YTsgICAgICAgIDxwb2x5Z29uIHBvaW50cz0iMTYsMTEgMjEsMTEgMjEsMTkgMTUsMTkiLz4mI3hhOyAgICAgICAgPHBvbHlnb24gcG9pbnRzPSI2LDExIDExLDExIDksMTkgMywxOSIvPiYjeGE7ICAgIDwvZz4mI3hhOzwvc3ZnPg==" vertex="1" parent="1">
          <mxGeometry x="330.0011111111111" y="1372" width="48" height="48" as="geometry" />
        </mxCell>
        <mxCell id="_GWNJ5twluiKmYlob1LI-130" value="Customer" style="shape=image;verticalLabelPosition=bottom;verticalAlign=top;imageAspect=0;aspect=fixed;image=data:image/svg+xml,PHN2ZyB4bWxucz0iaHR0cDovL3d3dy53My5vcmcvMjAwMC9zdmciIHZlcnNpb249IjEiIHZpZXdCb3g9IjAgMCA0OCA0OCIgZW5hYmxlLWJhY2tncm91bmQ9Im5ldyAwIDAgNDggNDgiPiYjeGE7ICAgIDxwb2x5Z29uIGZpbGw9IiNGRjk4MDAiIHBvaW50cz0iMjQsMzcgMTksMzEgMTksMjUgMjksMjUgMjksMzEiLz4mI3hhOyAgICA8ZyBmaWxsPSIjRkZBNzI2Ij4mI3hhOyAgICAgICAgPGNpcmNsZSBjeD0iMzMiIGN5PSIxOSIgcj0iMiIvPiYjeGE7ICAgICAgICA8Y2lyY2xlIGN4PSIxNSIgY3k9IjE5IiByPSIyIi8+JiN4YTsgICAgPC9nPiYjeGE7ICAgIDxwYXRoIGZpbGw9IiNGRkI3NEQiIGQ9Ik0zMywxM2MwLTcuNi0xOC01LTE4LDBjMCwxLjEsMCw1LjksMCw3YzAsNSw0LDksOSw5czktNCw5LTlDMzMsMTguOSwzMywxNC4xLDMzLDEzeiIvPiYjeGE7ICAgIDxwYXRoIGZpbGw9IiM0MjQyNDIiIGQ9Ik0yNCw0Yy02LjEsMC0xMCw0LjktMTAsMTFjMCwwLjgsMCwyLjMsMCwyLjNsMiwxLjd2LTVsMTItNGw0LDR2NWwyLTEuN2MwLDAsMC0xLjUsMC0yLjNjMC00LTEtOC02LTlsLTEtMiBIMjR6Ii8+JiN4YTsgICAgPGcgZmlsbD0iIzc4NDcxOSI+JiN4YTsgICAgICAgIDxjaXJjbGUgY3g9IjI4IiBjeT0iMTkiIHI9IjEiLz4mI3hhOyAgICAgICAgPGNpcmNsZSBjeD0iMjAiIGN5PSIxOSIgcj0iMSIvPiYjeGE7ICAgIDwvZz4mI3hhOyAgICA8cG9seWdvbiBmaWxsPSIjZmZmIiBwb2ludHM9IjI0LDQzIDE5LDMxIDI0LDMyIDI5LDMxIi8+JiN4YTsgICAgPHBvbHlnb24gZmlsbD0iI0QzMkYyRiIgcG9pbnRzPSIyMywzNSAyMi4zLDM5LjUgMjQsNDMuNSAyNS43LDM5LjUgMjUsMzUgMjYsMzQgMjQsMzIgMjIsMzQiLz4mI3hhOyAgICA8cGF0aCBmaWxsPSIjNTQ2RTdBIiBkPSJNMjksMzFMMjksMzFsLTUsMTJsLTUtMTJjMCwwLTExLDItMTEsMTNoMzJDNDAsMzMsMjksMzEsMjksMzF6Ii8+JiN4YTs8L3N2Zz4=;labelBackgroundColor=#ffffff;container=1;" vertex="1" parent="1">
          <mxGeometry x="150" y="1190" width="48" height="48" as="geometry" />
        </mxCell>
        <mxCell id="_GWNJ5twluiKmYlob1LI-131" value="" style="group" vertex="1" connectable="0" parent="1">
          <mxGeometry x="831" y="1376" width="110" height="68" as="geometry" />
        </mxCell>
        <mxCell id="_GWNJ5twluiKmYlob1LI-132" value="" style="aspect=fixed;perimeter=ellipsePerimeter;html=1;align=center;shadow=0;dashed=0;fontColor=#4277BB;labelBackgroundColor=#ffffff;fontSize=12;spacingTop=3;image;image=img/lib/ibm/management/api_management.svg;" vertex="1" parent="_GWNJ5twluiKmYlob1LI-131">
          <mxGeometry x="35" width="40" height="40" as="geometry" />
        </mxCell>
        <mxCell id="_GWNJ5twluiKmYlob1LI-133" value="API Management" style="text;html=1;align=center;verticalAlign=middle;resizable=0;points=[];autosize=1;strokeColor=none;fillColor=none;" vertex="1" parent="_GWNJ5twluiKmYlob1LI-131">
          <mxGeometry y="40" width="110" height="20" as="geometry" />
        </mxCell>
        <mxCell id="_GWNJ5twluiKmYlob1LI-134" value="" style="group" vertex="1" connectable="0" parent="1">
          <mxGeometry x="584" y="1372" width="74" height="68" as="geometry" />
        </mxCell>
        <mxCell id="_GWNJ5twluiKmYlob1LI-135" value="" style="shape=image;verticalLabelPosition=bottom;verticalAlign=top;imageAspect=0;aspect=fixed;image=data:image/svg+xml,PHN2ZyB4bWxucz0iaHR0cDovL3d3dy53My5vcmcvMjAwMC9zdmciIHZlcnNpb249IjEiIHZpZXdCb3g9IjAgMCA0OCA0OCIgZW5hYmxlLWJhY2tncm91bmQ9Im5ldyAwIDAgNDggNDgiPiYjeGE7ICAgIDxnIGZpbGw9IiNGRjk4MDAiPiYjeGE7ICAgICAgICA8cmVjdCB4PSIxIiB5PSIzOCIgd2lkdGg9IjQ2IiBoZWlnaHQ9IjIiLz4mI3hhOyAgICAgICAgPHJlY3QgeD0iMjUiIHk9IjE4IiB3aWR0aD0iNCIgaGVpZ2h0PSIxNiIvPiYjeGE7ICAgICAgICA8cmVjdCB4PSIzMSIgeT0iMTgiIHdpZHRoPSI0IiBoZWlnaHQ9IjE2Ii8+JiN4YTsgICAgICAgIDxyZWN0IHg9IjM3IiB5PSIxOCIgd2lkdGg9IjQiIGhlaWdodD0iMTYiLz4mI3hhOyAgICAgICAgPHJlY3QgeD0iMTkiIHk9IjE4IiB3aWR0aD0iNCIgaGVpZ2h0PSIxNiIvPiYjeGE7ICAgICAgICA8cmVjdCB4PSIxMyIgeT0iMTgiIHdpZHRoPSI0IiBoZWlnaHQ9IjE2Ii8+JiN4YTsgICAgICAgIDxyZWN0IHg9IjciIHk9IjE4IiB3aWR0aD0iNCIgaGVpZ2h0PSIxNiIvPiYjeGE7ICAgICAgICA8cG9seWdvbiBwb2ludHM9IjQzLDE2IDUsMTYgNSwxMyAyNCw0IDQzLDEzIi8+JiN4YTsgICAgICAgIDxyZWN0IHg9IjUiIHk9IjM0IiB3aWR0aD0iMzgiIGhlaWdodD0iMiIvPiYjeGE7ICAgIDwvZz4mI3hhOyAgICA8ZyBmaWxsPSIjRUY2QzAwIj4mI3hhOyAgICAgICAgPHJlY3QgeD0iMjUiIHk9IjE2IiB3aWR0aD0iNCIgaGVpZ2h0PSIyIi8+JiN4YTsgICAgICAgIDxyZWN0IHg9IjMxIiB5PSIxNiIgd2lkdGg9IjQiIGhlaWdodD0iMiIvPiYjeGE7ICAgICAgICA8cmVjdCB4PSIzNyIgeT0iMTYiIHdpZHRoPSI0IiBoZWlnaHQ9IjIiLz4mI3hhOyAgICAgICAgPHJlY3QgeD0iMTkiIHk9IjE2IiB3aWR0aD0iNCIgaGVpZ2h0PSIyIi8+JiN4YTsgICAgICAgIDxyZWN0IHg9IjEzIiB5PSIxNiIgd2lkdGg9IjQiIGhlaWdodD0iMiIvPiYjeGE7ICAgICAgICA8cmVjdCB4PSI3IiB5PSIxNiIgd2lkdGg9IjQiIGhlaWdodD0iMiIvPiYjeGE7ICAgICAgICA8cmVjdCB4PSIzIiB5PSIzNiIgd2lkdGg9IjQyIiBoZWlnaHQ9IjIiLz4mI3hhOyAgICAgICAgPGNpcmNsZSBjeD0iMjQiIGN5PSIxMSIgcj0iMiIvPiYjeGE7ICAgIDwvZz4mI3hhOzwvc3ZnPg==;html=0;" vertex="1" parent="_GWNJ5twluiKmYlob1LI-134">
          <mxGeometry width="48" height="48" as="geometry" />
        </mxCell>
        <mxCell id="_GWNJ5twluiKmYlob1LI-136" value="EDC Bank CIMB" style="text;html=1;align=center;verticalAlign=middle;resizable=0;points=[];autosize=1;strokeColor=none;fillColor=none;" vertex="1" parent="_GWNJ5twluiKmYlob1LI-134">
          <mxGeometry x="-26" y="48" width="100" height="20" as="geometry" />
        </mxCell>
        <mxCell id="_GWNJ5twluiKmYlob1LI-137" value="" style="group" vertex="1" connectable="0" parent="1">
          <mxGeometry x="580" y="1210" width="74" height="68" as="geometry" />
        </mxCell>
        <mxCell id="_GWNJ5twluiKmYlob1LI-138" value="" style="shape=image;verticalLabelPosition=bottom;verticalAlign=top;imageAspect=0;aspect=fixed;image=data:image/svg+xml,PHN2ZyB4bWxucz0iaHR0cDovL3d3dy53My5vcmcvMjAwMC9zdmciIHZlcnNpb249IjEiIHZpZXdCb3g9IjAgMCA0OCA0OCIgZW5hYmxlLWJhY2tncm91bmQ9Im5ldyAwIDAgNDggNDgiPiYjeGE7ICAgIDxnIGZpbGw9IiNGRjk4MDAiPiYjeGE7ICAgICAgICA8cmVjdCB4PSIxIiB5PSIzOCIgd2lkdGg9IjQ2IiBoZWlnaHQ9IjIiLz4mI3hhOyAgICAgICAgPHJlY3QgeD0iMjUiIHk9IjE4IiB3aWR0aD0iNCIgaGVpZ2h0PSIxNiIvPiYjeGE7ICAgICAgICA8cmVjdCB4PSIzMSIgeT0iMTgiIHdpZHRoPSI0IiBoZWlnaHQ9IjE2Ii8+JiN4YTsgICAgICAgIDxyZWN0IHg9IjM3IiB5PSIxOCIgd2lkdGg9IjQiIGhlaWdodD0iMTYiLz4mI3hhOyAgICAgICAgPHJlY3QgeD0iMTkiIHk9IjE4IiB3aWR0aD0iNCIgaGVpZ2h0PSIxNiIvPiYjeGE7ICAgICAgICA8cmVjdCB4PSIxMyIgeT0iMTgiIHdpZHRoPSI0IiBoZWlnaHQ9IjE2Ii8+JiN4YTsgICAgICAgIDxyZWN0IHg9IjciIHk9IjE4IiB3aWR0aD0iNCIgaGVpZ2h0PSIxNiIvPiYjeGE7ICAgICAgICA8cG9seWdvbiBwb2ludHM9IjQzLDE2IDUsMTYgNSwxMyAyNCw0IDQzLDEzIi8+JiN4YTsgICAgICAgIDxyZWN0IHg9IjUiIHk9IjM0IiB3aWR0aD0iMzgiIGhlaWdodD0iMiIvPiYjeGE7ICAgIDwvZz4mI3hhOyAgICA8ZyBmaWxsPSIjRUY2QzAwIj4mI3hhOyAgICAgICAgPHJlY3QgeD0iMjUiIHk9IjE2IiB3aWR0aD0iNCIgaGVpZ2h0PSIyIi8+JiN4YTsgICAgICAgIDxyZWN0IHg9IjMxIiB5PSIxNiIgd2lkdGg9IjQiIGhlaWdodD0iMiIvPiYjeGE7ICAgICAgICA8cmVjdCB4PSIzNyIgeT0iMTYiIHdpZHRoPSI0IiBoZWlnaHQ9IjIiLz4mI3hhOyAgICAgICAgPHJlY3QgeD0iMTkiIHk9IjE2IiB3aWR0aD0iNCIgaGVpZ2h0PSIyIi8+JiN4YTsgICAgICAgIDxyZWN0IHg9IjEzIiB5PSIxNiIgd2lkdGg9IjQiIGhlaWdodD0iMiIvPiYjeGE7ICAgICAgICA8cmVjdCB4PSI3IiB5PSIxNiIgd2lkdGg9IjQiIGhlaWdodD0iMiIvPiYjeGE7ICAgICAgICA8cmVjdCB4PSIzIiB5PSIzNiIgd2lkdGg9IjQyIiBoZWlnaHQ9IjIiLz4mI3hhOyAgICAgICAgPGNpcmNsZSBjeD0iMjQiIGN5PSIxMSIgcj0iMiIvPiYjeGE7ICAgIDwvZz4mI3hhOzwvc3ZnPg==;html=0;" vertex="1" parent="_GWNJ5twluiKmYlob1LI-137">
          <mxGeometry width="48" height="48" as="geometry" />
        </mxCell>
        <mxCell id="_GWNJ5twluiKmYlob1LI-139" value="EDC Bank BCA" style="text;html=1;align=center;verticalAlign=middle;resizable=0;points=[];autosize=1;strokeColor=none;fillColor=none;" vertex="1" parent="_GWNJ5twluiKmYlob1LI-137">
          <mxGeometry x="-26" y="48" width="100" height="20" as="geometry" />
        </mxCell>
        <mxCell id="_GWNJ5twluiKmYlob1LI-140" value="" style="group" vertex="1" connectable="0" parent="1">
          <mxGeometry x="589" y="1540" width="69" height="68" as="geometry" />
        </mxCell>
        <mxCell id="_GWNJ5twluiKmYlob1LI-141" value="" style="shape=image;verticalLabelPosition=bottom;verticalAlign=top;imageAspect=0;aspect=fixed;image=data:image/svg+xml,PHN2ZyB4bWxucz0iaHR0cDovL3d3dy53My5vcmcvMjAwMC9zdmciIHZlcnNpb249IjEiIHZpZXdCb3g9IjAgMCA0OCA0OCIgZW5hYmxlLWJhY2tncm91bmQ9Im5ldyAwIDAgNDggNDgiPiYjeGE7ICAgIDxnIGZpbGw9IiNGRjk4MDAiPiYjeGE7ICAgICAgICA8cmVjdCB4PSIxIiB5PSIzOCIgd2lkdGg9IjQ2IiBoZWlnaHQ9IjIiLz4mI3hhOyAgICAgICAgPHJlY3QgeD0iMjUiIHk9IjE4IiB3aWR0aD0iNCIgaGVpZ2h0PSIxNiIvPiYjeGE7ICAgICAgICA8cmVjdCB4PSIzMSIgeT0iMTgiIHdpZHRoPSI0IiBoZWlnaHQ9IjE2Ii8+JiN4YTsgICAgICAgIDxyZWN0IHg9IjM3IiB5PSIxOCIgd2lkdGg9IjQiIGhlaWdodD0iMTYiLz4mI3hhOyAgICAgICAgPHJlY3QgeD0iMTkiIHk9IjE4IiB3aWR0aD0iNCIgaGVpZ2h0PSIxNiIvPiYjeGE7ICAgICAgICA8cmVjdCB4PSIxMyIgeT0iMTgiIHdpZHRoPSI0IiBoZWlnaHQ9IjE2Ii8+JiN4YTsgICAgICAgIDxyZWN0IHg9IjciIHk9IjE4IiB3aWR0aD0iNCIgaGVpZ2h0PSIxNiIvPiYjeGE7ICAgICAgICA8cG9seWdvbiBwb2ludHM9IjQzLDE2IDUsMTYgNSwxMyAyNCw0IDQzLDEzIi8+JiN4YTsgICAgICAgIDxyZWN0IHg9IjUiIHk9IjM0IiB3aWR0aD0iMzgiIGhlaWdodD0iMiIvPiYjeGE7ICAgIDwvZz4mI3hhOyAgICA8ZyBmaWxsPSIjRUY2QzAwIj4mI3hhOyAgICAgICAgPHJlY3QgeD0iMjUiIHk9IjE2IiB3aWR0aD0iNCIgaGVpZ2h0PSIyIi8+JiN4YTsgICAgICAgIDxyZWN0IHg9IjMxIiB5PSIxNiIgd2lkdGg9IjQiIGhlaWdodD0iMiIvPiYjeGE7ICAgICAgICA8cmVjdCB4PSIzNyIgeT0iMTYiIHdpZHRoPSI0IiBoZWlnaHQ9IjIiLz4mI3hhOyAgICAgICAgPHJlY3QgeD0iMTkiIHk9IjE2IiB3aWR0aD0iNCIgaGVpZ2h0PSIyIi8+JiN4YTsgICAgICAgIDxyZWN0IHg9IjEzIiB5PSIxNiIgd2lkdGg9IjQiIGhlaWdodD0iMiIvPiYjeGE7ICAgICAgICA8cmVjdCB4PSI3IiB5PSIxNiIgd2lkdGg9IjQiIGhlaWdodD0iMiIvPiYjeGE7ICAgICAgICA8cmVjdCB4PSIzIiB5PSIzNiIgd2lkdGg9IjQyIiBoZWlnaHQ9IjIiLz4mI3hhOyAgICAgICAgPGNpcmNsZSBjeD0iMjQiIGN5PSIxMSIgcj0iMiIvPiYjeGE7ICAgIDwvZz4mI3hhOzwvc3ZnPg==;html=0;" vertex="1" parent="_GWNJ5twluiKmYlob1LI-140">
          <mxGeometry width="48" height="48" as="geometry" />
        </mxCell>
        <mxCell id="_GWNJ5twluiKmYlob1LI-142" value="EDC Bank BNI" style="text;html=1;align=center;verticalAlign=middle;resizable=0;points=[];autosize=1;strokeColor=none;fillColor=none;" vertex="1" parent="_GWNJ5twluiKmYlob1LI-140">
          <mxGeometry x="-21" y="48" width="90" height="20" as="geometry" />
        </mxCell>
        <mxCell id="_GWNJ5twluiKmYlob1LI-143" value="Customer" style="shape=image;verticalLabelPosition=bottom;verticalAlign=top;imageAspect=0;aspect=fixed;image=data:image/svg+xml,PHN2ZyB4bWxucz0iaHR0cDovL3d3dy53My5vcmcvMjAwMC9zdmciIHZlcnNpb249IjEiIHZpZXdCb3g9IjAgMCA0OCA0OCIgZW5hYmxlLWJhY2tncm91bmQ9Im5ldyAwIDAgNDggNDgiPiYjeGE7ICAgIDxwb2x5Z29uIGZpbGw9IiNGRjk4MDAiIHBvaW50cz0iMjQsMzcgMTksMzEgMTksMjUgMjksMjUgMjksMzEiLz4mI3hhOyAgICA8ZyBmaWxsPSIjRkZBNzI2Ij4mI3hhOyAgICAgICAgPGNpcmNsZSBjeD0iMzMiIGN5PSIxOSIgcj0iMiIvPiYjeGE7ICAgICAgICA8Y2lyY2xlIGN4PSIxNSIgY3k9IjE5IiByPSIyIi8+JiN4YTsgICAgPC9nPiYjeGE7ICAgIDxwYXRoIGZpbGw9IiNGRkI3NEQiIGQ9Ik0zMywxM2MwLTcuNi0xOC01LTE4LDBjMCwxLjEsMCw1LjksMCw3YzAsNSw0LDksOSw5czktNCw5LTlDMzMsMTguOSwzMywxNC4xLDMzLDEzeiIvPiYjeGE7ICAgIDxwYXRoIGZpbGw9IiM0MjQyNDIiIGQ9Ik0yNCw0Yy02LjEsMC0xMCw0LjktMTAsMTFjMCwwLjgsMCwyLjMsMCwyLjNsMiwxLjd2LTVsMTItNGw0LDR2NWwyLTEuN2MwLDAsMC0xLjUsMC0yLjNjMC00LTEtOC02LTlsLTEtMiBIMjR6Ii8+JiN4YTsgICAgPGcgZmlsbD0iIzc4NDcxOSI+JiN4YTsgICAgICAgIDxjaXJjbGUgY3g9IjI4IiBjeT0iMTkiIHI9IjEiLz4mI3hhOyAgICAgICAgPGNpcmNsZSBjeD0iMjAiIGN5PSIxOSIgcj0iMSIvPiYjeGE7ICAgIDwvZz4mI3hhOyAgICA8cG9seWdvbiBmaWxsPSIjZmZmIiBwb2ludHM9IjI0LDQzIDE5LDMxIDI0LDMyIDI5LDMxIi8+JiN4YTsgICAgPHBvbHlnb24gZmlsbD0iI0QzMkYyRiIgcG9pbnRzPSIyMywzNSAyMi4zLDM5LjUgMjQsNDMuNSAyNS43LDM5LjUgMjUsMzUgMjYsMzQgMjQsMzIgMjIsMzQiLz4mI3hhOyAgICA8cGF0aCBmaWxsPSIjNTQ2RTdBIiBkPSJNMjksMzFMMjksMzFsLTUsMTJsLTUtMTJjMCwwLTExLDItMTEsMTNoMzJDNDAsMzMsMjksMzEsMjksMzF6Ii8+JiN4YTs8L3N2Zz4=;labelBackgroundColor=#ffffff;container=1;" vertex="1" parent="1">
          <mxGeometry x="20" y="1372" width="48" height="48" as="geometry" />
        </mxCell>
        <mxCell id="_GWNJ5twluiKmYlob1LI-144" value="" style="edgeStyle=orthogonalEdgeStyle;rounded=0;orthogonalLoop=1;jettySize=auto;html=1;entryX=0.536;entryY=1.032;entryDx=0;entryDy=0;entryPerimeter=0;" edge="1" parent="1" source="_GWNJ5twluiKmYlob1LI-141" target="_GWNJ5twluiKmYlob1LI-133">
          <mxGeometry relative="1" as="geometry">
            <mxPoint x="679.5" y="1554" as="targetPoint" />
            <Array as="points">
              <mxPoint x="890" y="1570" />
            </Array>
          </mxGeometry>
        </mxCell>
        <mxCell id="_GWNJ5twluiKmYlob1LI-145" value="" style="edgeStyle=orthogonalEdgeStyle;rounded=0;orthogonalLoop=1;jettySize=auto;html=1;entryX=0;entryY=0.5;entryDx=0;entryDy=0;" edge="1" parent="1" source="_GWNJ5twluiKmYlob1LI-135" target="_GWNJ5twluiKmYlob1LI-132">
          <mxGeometry relative="1" as="geometry">
            <mxPoint x="860" y="1404" as="targetPoint" />
          </mxGeometry>
        </mxCell>
        <mxCell id="_GWNJ5twluiKmYlob1LI-146" value="" style="edgeStyle=orthogonalEdgeStyle;rounded=0;orthogonalLoop=1;jettySize=auto;html=1;entryX=0.5;entryY=0;entryDx=0;entryDy=0;" edge="1" parent="1" source="_GWNJ5twluiKmYlob1LI-138" target="_GWNJ5twluiKmYlob1LI-132">
          <mxGeometry relative="1" as="geometry">
            <mxPoint x="890" y="1370" as="targetPoint" />
          </mxGeometry>
        </mxCell>
        <mxCell id="_GWNJ5twluiKmYlob1LI-176" value="" style="group" vertex="1" connectable="0" parent="1">
          <mxGeometry x="10" y="530" width="921" height="418" as="geometry" />
        </mxCell>
        <mxCell id="_GWNJ5twluiKmYlob1LI-159" value="" style="group" vertex="1" connectable="0" parent="_GWNJ5twluiKmYlob1LI-176">
          <mxGeometry x="811" y="186" width="110" height="68" as="geometry" />
        </mxCell>
        <mxCell id="_GWNJ5twluiKmYlob1LI-160" value="" style="aspect=fixed;perimeter=ellipsePerimeter;html=1;align=center;shadow=0;dashed=0;fontColor=#4277BB;labelBackgroundColor=#ffffff;fontSize=12;spacingTop=3;image;image=img/lib/ibm/management/api_management.svg;" vertex="1" parent="_GWNJ5twluiKmYlob1LI-159">
          <mxGeometry x="35" width="40" height="40" as="geometry" />
        </mxCell>
        <mxCell id="_GWNJ5twluiKmYlob1LI-161" value="API Management" style="text;html=1;align=center;verticalAlign=middle;resizable=0;points=[];autosize=1;strokeColor=none;fillColor=none;" vertex="1" parent="_GWNJ5twluiKmYlob1LI-159">
          <mxGeometry y="40" width="110" height="20" as="geometry" />
        </mxCell>
        <mxCell id="_GWNJ5twluiKmYlob1LI-175" value="" style="group" vertex="1" connectable="0" parent="_GWNJ5twluiKmYlob1LI-176">
          <mxGeometry width="870" height="418" as="geometry" />
        </mxCell>
        <mxCell id="_GWNJ5twluiKmYlob1LI-147" style="edgeStyle=none;rounded=0;orthogonalLoop=1;jettySize=auto;html=1;sourcePerimeterSpacing=5;endArrow=none;endFill=0;targetPerimeterSpacing=5;" edge="1" parent="_GWNJ5twluiKmYlob1LI-175" source="_GWNJ5twluiKmYlob1LI-151">
          <mxGeometry relative="1" as="geometry">
            <mxPoint x="308" y="228.85950413223145" as="targetPoint" />
          </mxGeometry>
        </mxCell>
        <mxCell id="_GWNJ5twluiKmYlob1LI-151" value="Order Online&#xa;(Gojek and Grab)" style="shape=image;verticalLabelPosition=bottom;verticalAlign=top;imageAspect=0;aspect=fixed;image=data:image/svg+xml,PHN2ZyB4bWxucz0iaHR0cDovL3d3dy53My5vcmcvMjAwMC9zdmciIHZlcnNpb249IjEiIHZpZXdCb3g9IjAgMCA0OCA0OCIgZW5hYmxlLWJhY2tncm91bmQ9Im5ldyAwIDAgNDggNDgiPiYjeGE7ICAgIDxwYXRoIGZpbGw9IiMzNzQ3NEYiIGQ9Ik00LDM5VjdjMC0yLjIsMS44LTQsNC00aDIyYzIuMiwwLDQsMS44LDQsNHYzMmMwLDIuMi0xLjgsNC00LDRIOEM1LjgsNDMsNCw0MS4yLDQsMzl6Ii8+JiN4YTsgICAgPHBhdGggZmlsbD0iI0JCREVGQiIgZD0iTTMwLDZIOEM3LjQsNiw3LDYuNCw3LDd2MjljMCwwLjYsMC40LDEsMSwxaDIyYzAuNiwwLDEtMC40LDEtMVY3QzMxLDYuNCwzMC42LDYsMzAsNnoiLz4mI3hhOyAgICA8cmVjdCB4PSIxNSIgeT0iMzkiIGZpbGw9IiM3ODkwOUMiIHdpZHRoPSI2IiBoZWlnaHQ9IjIiLz4mI3hhOyAgICA8cGF0aCBmaWxsPSIjRTM4OTM5IiBkPSJNMjQsNDFWMTdjMC0yLjIsMS44LTQsNC00aDEyYzIuMiwwLDQsMS44LDQsNHYyNGMwLDIuMi0xLjgsNC00LDRIMjhDMjUuOCw0NSwyNCw0My4yLDI0LDQxeiIvPiYjeGE7ICAgIDxwYXRoIGZpbGw9IiNGRkYzRTAiIGQ9Ik00MCwxNkgyOGMtMC42LDAtMSwwLjQtMSwxdjIyYzAsMC42LDAuNCwxLDEsMWgxMmMwLjYsMCwxLTAuNCwxLTFWMTdDNDEsMTYuNCw0MC42LDE2LDQwLDE2eiIvPiYjeGE7ICAgIDxjaXJjbGUgZmlsbD0iI0E2NjQyQSIgY3g9IjM0IiBjeT0iNDIuNSIgcj0iMS41Ii8+JiN4YTs8L3N2Zz4=;labelBackgroundColor=#ffffff;container=1;" vertex="1" parent="_GWNJ5twluiKmYlob1LI-175">
          <mxGeometry x="192" y="252" width="48" height="48" as="geometry" />
        </mxCell>
        <mxCell id="_GWNJ5twluiKmYlob1LI-152" value="Customer" style="shape=image;verticalLabelPosition=bottom;verticalAlign=top;imageAspect=0;aspect=fixed;image=data:image/svg+xml,PHN2ZyB4bWxucz0iaHR0cDovL3d3dy53My5vcmcvMjAwMC9zdmciIHZlcnNpb249IjEiIHZpZXdCb3g9IjAgMCA0OCA0OCIgZW5hYmxlLWJhY2tncm91bmQ9Im5ldyAwIDAgNDggNDgiPiYjeGE7ICAgIDxwb2x5Z29uIGZpbGw9IiNGRjk4MDAiIHBvaW50cz0iMjQsMzcgMTksMzEgMTksMjUgMjksMjUgMjksMzEiLz4mI3hhOyAgICA8ZyBmaWxsPSIjRkZBNzI2Ij4mI3hhOyAgICAgICAgPGNpcmNsZSBjeD0iMzMiIGN5PSIxOSIgcj0iMiIvPiYjeGE7ICAgICAgICA8Y2lyY2xlIGN4PSIxNSIgY3k9IjE5IiByPSIyIi8+JiN4YTsgICAgPC9nPiYjeGE7ICAgIDxwYXRoIGZpbGw9IiNGRkI3NEQiIGQ9Ik0zMywxM2MwLTcuNi0xOC01LTE4LDBjMCwxLjEsMCw1LjksMCw3YzAsNSw0LDksOSw5czktNCw5LTlDMzMsMTguOSwzMywxNC4xLDMzLDEzeiIvPiYjeGE7ICAgIDxwYXRoIGZpbGw9IiM0MjQyNDIiIGQ9Ik0yNCw0Yy02LjEsMC0xMCw0LjktMTAsMTFjMCwwLjgsMCwyLjMsMCwyLjNsMiwxLjd2LTVsMTItNGw0LDR2NWwyLTEuN2MwLDAsMC0xLjUsMC0yLjNjMC00LTEtOC02LTlsLTEtMiBIMjR6Ii8+JiN4YTsgICAgPGcgZmlsbD0iIzc4NDcxOSI+JiN4YTsgICAgICAgIDxjaXJjbGUgY3g9IjI4IiBjeT0iMTkiIHI9IjEiLz4mI3hhOyAgICAgICAgPGNpcmNsZSBjeD0iMjAiIGN5PSIxOSIgcj0iMSIvPiYjeGE7ICAgIDwvZz4mI3hhOyAgICA8cG9seWdvbiBmaWxsPSIjZmZmIiBwb2ludHM9IjI0LDQzIDE5LDMxIDI0LDMyIDI5LDMxIi8+JiN4YTsgICAgPHBvbHlnb24gZmlsbD0iI0QzMkYyRiIgcG9pbnRzPSIyMywzNSAyMi4zLDM5LjUgMjQsNDMuNSAyNS43LDM5LjUgMjUsMzUgMjYsMzQgMjQsMzIgMjIsMzQiLz4mI3hhOyAgICA8cGF0aCBmaWxsPSIjNTQ2RTdBIiBkPSJNMjksMzFMMjksMzFsLTUsMTJsLTUtMTJjMCwwLTExLDItMTEsMTNoMzJDNDAsMzMsMjksMzEsMjksMzF6Ii8+JiN4YTs8L3N2Zz4=;labelBackgroundColor=#ffffff;container=1;" vertex="1" parent="_GWNJ5twluiKmYlob1LI-175">
          <mxGeometry y="80" width="48" height="48" as="geometry" />
        </mxCell>
        <mxCell id="_GWNJ5twluiKmYlob1LI-153" value="Merchant" style="text;html=1;align=center;verticalAlign=middle;resizable=0;points=[];autosize=1;strokeColor=none;fillColor=none;" vertex="1" parent="_GWNJ5twluiKmYlob1LI-175">
          <mxGeometry x="300" y="230" width="70" height="20" as="geometry" />
        </mxCell>
        <mxCell id="_GWNJ5twluiKmYlob1LI-154" value="" style="edgeStyle=orthogonalEdgeStyle;rounded=0;orthogonalLoop=1;jettySize=auto;html=1;exitX=0.492;exitY=1.106;exitDx=0;exitDy=0;exitPerimeter=0;entryX=0.021;entryY=0.625;entryDx=0;entryDy=0;entryPerimeter=0;" edge="1" parent="_GWNJ5twluiKmYlob1LI-175" source="_GWNJ5twluiKmYlob1LI-153" target="_GWNJ5twluiKmYlob1LI-169">
          <mxGeometry relative="1" as="geometry">
            <mxPoint x="540" y="370" as="targetPoint" />
            <Array as="points">
              <mxPoint x="334" y="380" />
            </Array>
          </mxGeometry>
        </mxCell>
        <mxCell id="_GWNJ5twluiKmYlob1LI-157" value="" style="shape=image;verticalLabelPosition=bottom;verticalAlign=top;imageAspect=0;aspect=fixed;image=data:image/svg+xml,PHN2ZyB4bWxucz0iaHR0cDovL3d3dy53My5vcmcvMjAwMC9zdmciIHZlcnNpb249IjEiIHZpZXdCb3g9IjAgMCA0OCA0OCIgZW5hYmxlLWJhY2tncm91bmQ9Im5ldyAwIDAgNDggNDgiPiYjeGE7ICAgIDxyZWN0IHg9IjUiIHk9IjE5IiBmaWxsPSIjQ0ZEOERDIiB3aWR0aD0iMzgiIGhlaWdodD0iMTkiLz4mI3hhOyAgICA8cmVjdCB4PSI1IiB5PSIzOCIgZmlsbD0iI0IwQkVDNSIgd2lkdGg9IjM4IiBoZWlnaHQ9IjQiLz4mI3hhOyAgICA8cmVjdCB4PSIyNyIgeT0iMjQiIGZpbGw9IiM0NTVBNjQiIHdpZHRoPSIxMiIgaGVpZ2h0PSIxOCIvPiYjeGE7ICAgIDxyZWN0IHg9IjkiIHk9IjI0IiBmaWxsPSIjRTNGMkZEIiB3aWR0aD0iMTQiIGhlaWdodD0iMTEiLz4mI3hhOyAgICA8cmVjdCB4PSIxMCIgeT0iMjUiIGZpbGw9IiMxRTg4RTUiIHdpZHRoPSIxMiIgaGVpZ2h0PSI5Ii8+JiN4YTsgICAgPHBhdGggZmlsbD0iIzkwQTRBRSIgZD0iTTM2LjUsMzMuNWMtMC4zLDAtMC41LDAuMi0wLjUsMC41djJjMCwwLjMsMC4yLDAuNSwwLjUsMC41UzM3LDM2LjMsMzcsMzZ2LTJDMzcsMzMuNywzNi44LDMzLjUsMzYuNSwzMy41eiIvPiYjeGE7ICAgIDxnIGZpbGw9IiM1NThCMkYiPiYjeGE7ICAgICAgICA8Y2lyY2xlIGN4PSIyNCIgY3k9IjE5IiByPSIzIi8+JiN4YTsgICAgICAgIDxjaXJjbGUgY3g9IjM2IiBjeT0iMTkiIHI9IjMiLz4mI3hhOyAgICAgICAgPGNpcmNsZSBjeD0iMTIiIGN5PSIxOSIgcj0iMyIvPiYjeGE7ICAgIDwvZz4mI3hhOyAgICA8cGF0aCBmaWxsPSIjN0NCMzQyIiBkPSJNNDAsNkg4QzYuOSw2LDYsNi45LDYsOHYzaDM2VjhDNDIsNi45LDQxLjEsNiw0MCw2eiIvPiYjeGE7ICAgIDxyZWN0IHg9IjIxIiB5PSIxMSIgZmlsbD0iIzdDQjM0MiIgd2lkdGg9IjYiIGhlaWdodD0iOCIvPiYjeGE7ICAgIDxwb2x5Z29uIGZpbGw9IiM3Q0IzNDIiIHBvaW50cz0iMzcsMTEgMzIsMTEgMzMsMTkgMzksMTkiLz4mI3hhOyAgICA8cG9seWdvbiBmaWxsPSIjN0NCMzQyIiBwb2ludHM9IjExLDExIDE2LDExIDE1LDE5IDksMTkiLz4mI3hhOyAgICA8ZyBmaWxsPSIjRkZBMDAwIj4mI3hhOyAgICAgICAgPGNpcmNsZSBjeD0iMzAiIGN5PSIxOSIgcj0iMyIvPiYjeGE7ICAgICAgICA8cGF0aCBkPSJNNDUsMTljMCwxLjctMS4zLDMtMywzcy0zLTEuMy0zLTNzMS4zLTMsMy0zTDQ1LDE5eiIvPiYjeGE7ICAgICAgICA8Y2lyY2xlIGN4PSIxOCIgY3k9IjE5IiByPSIzIi8+JiN4YTsgICAgICAgIDxwYXRoIGQ9Ik0zLDE5YzAsMS43LDEuMywzLDMsM3MzLTEuMywzLTNzLTEuMy0zLTMtM0wzLDE5eiIvPiYjeGE7ICAgIDwvZz4mI3hhOyAgICA8ZyBmaWxsPSIjRkZDMTA3Ij4mI3hhOyAgICAgICAgPHBvbHlnb24gcG9pbnRzPSIzMiwxMSAyNywxMSAyNywxOSAzMywxOSIvPiYjeGE7ICAgICAgICA8cG9seWdvbiBwb2ludHM9IjQyLDExIDM3LDExIDM5LDE5IDQ1LDE5Ii8+JiN4YTsgICAgICAgIDxwb2x5Z29uIHBvaW50cz0iMTYsMTEgMjEsMTEgMjEsMTkgMTUsMTkiLz4mI3hhOyAgICAgICAgPHBvbHlnb24gcG9pbnRzPSI2LDExIDExLDExIDksMTkgMywxOSIvPiYjeGE7ICAgIDwvZz4mI3hhOzwvc3ZnPg==" vertex="1" parent="_GWNJ5twluiKmYlob1LI-175">
          <mxGeometry x="310.0011111111111" y="182" width="48" height="48" as="geometry" />
        </mxCell>
        <mxCell id="_GWNJ5twluiKmYlob1LI-150" style="edgeStyle=none;rounded=0;orthogonalLoop=1;jettySize=auto;html=1;sourcePerimeterSpacing=5;endArrow=none;endFill=0;targetPerimeterSpacing=5;exitX=1;exitY=0.5;exitDx=0;exitDy=0;entryX=0;entryY=0.25;entryDx=0;entryDy=0;" edge="1" parent="_GWNJ5twluiKmYlob1LI-175" source="_GWNJ5twluiKmYlob1LI-152" target="_GWNJ5twluiKmYlob1LI-157">
          <mxGeometry relative="1" as="geometry">
            <mxPoint x="332.3599999999999" y="185" as="targetPoint" />
          </mxGeometry>
        </mxCell>
        <mxCell id="_GWNJ5twluiKmYlob1LI-158" value="Customer" style="shape=image;verticalLabelPosition=bottom;verticalAlign=top;imageAspect=0;aspect=fixed;image=data:image/svg+xml,PHN2ZyB4bWxucz0iaHR0cDovL3d3dy53My5vcmcvMjAwMC9zdmciIHZlcnNpb249IjEiIHZpZXdCb3g9IjAgMCA0OCA0OCIgZW5hYmxlLWJhY2tncm91bmQ9Im5ldyAwIDAgNDggNDgiPiYjeGE7ICAgIDxwb2x5Z29uIGZpbGw9IiNGRjk4MDAiIHBvaW50cz0iMjQsMzcgMTksMzEgMTksMjUgMjksMjUgMjksMzEiLz4mI3hhOyAgICA8ZyBmaWxsPSIjRkZBNzI2Ij4mI3hhOyAgICAgICAgPGNpcmNsZSBjeD0iMzMiIGN5PSIxOSIgcj0iMiIvPiYjeGE7ICAgICAgICA8Y2lyY2xlIGN4PSIxNSIgY3k9IjE5IiByPSIyIi8+JiN4YTsgICAgPC9nPiYjeGE7ICAgIDxwYXRoIGZpbGw9IiNGRkI3NEQiIGQ9Ik0zMywxM2MwLTcuNi0xOC01LTE4LDBjMCwxLjEsMCw1LjksMCw3YzAsNSw0LDksOSw5czktNCw5LTlDMzMsMTguOSwzMywxNC4xLDMzLDEzeiIvPiYjeGE7ICAgIDxwYXRoIGZpbGw9IiM0MjQyNDIiIGQ9Ik0yNCw0Yy02LjEsMC0xMCw0LjktMTAsMTFjMCwwLjgsMCwyLjMsMCwyLjNsMiwxLjd2LTVsMTItNGw0LDR2NWwyLTEuN2MwLDAsMC0xLjUsMC0yLjNjMC00LTEtOC02LTlsLTEtMiBIMjR6Ii8+JiN4YTsgICAgPGcgZmlsbD0iIzc4NDcxOSI+JiN4YTsgICAgICAgIDxjaXJjbGUgY3g9IjI4IiBjeT0iMTkiIHI9IjEiLz4mI3hhOyAgICAgICAgPGNpcmNsZSBjeD0iMjAiIGN5PSIxOSIgcj0iMSIvPiYjeGE7ICAgIDwvZz4mI3hhOyAgICA8cG9seWdvbiBmaWxsPSIjZmZmIiBwb2ludHM9IjI0LDQzIDE5LDMxIDI0LDMyIDI5LDMxIi8+JiN4YTsgICAgPHBvbHlnb24gZmlsbD0iI0QzMkYyRiIgcG9pbnRzPSIyMywzNSAyMi4zLDM5LjUgMjQsNDMuNSAyNS43LDM5LjUgMjUsMzUgMjYsMzQgMjQsMzIgMjIsMzQiLz4mI3hhOyAgICA8cGF0aCBmaWxsPSIjNTQ2RTdBIiBkPSJNMjksMzFMMjksMzFsLTUsMTJsLTUtMTJjMCwwLTExLDItMTEsMTNoMzJDNDAsMzMsMjksMzEsMjksMzF6Ii8+JiN4YTs8L3N2Zz4=;labelBackgroundColor=#ffffff;container=1;" vertex="1" parent="_GWNJ5twluiKmYlob1LI-175">
          <mxGeometry x="130" width="48" height="48" as="geometry" />
        </mxCell>
        <mxCell id="_GWNJ5twluiKmYlob1LI-149" style="rounded=0;orthogonalLoop=1;jettySize=auto;html=1;endArrow=none;endFill=0;sourcePerimeterSpacing=5;targetPerimeterSpacing=5;entryX=0;entryY=0;entryDx=0;entryDy=0;" edge="1" parent="_GWNJ5twluiKmYlob1LI-175" source="_GWNJ5twluiKmYlob1LI-158" target="_GWNJ5twluiKmYlob1LI-157">
          <mxGeometry relative="1" as="geometry">
            <mxPoint x="355.06140350877195" y="185" as="targetPoint" />
          </mxGeometry>
        </mxCell>
        <mxCell id="_GWNJ5twluiKmYlob1LI-162" value="" style="group" vertex="1" connectable="0" parent="_GWNJ5twluiKmYlob1LI-175">
          <mxGeometry x="564" y="182" width="74" height="68" as="geometry" />
        </mxCell>
        <mxCell id="_GWNJ5twluiKmYlob1LI-163" value="" style="shape=image;verticalLabelPosition=bottom;verticalAlign=top;imageAspect=0;aspect=fixed;image=data:image/svg+xml,PHN2ZyB4bWxucz0iaHR0cDovL3d3dy53My5vcmcvMjAwMC9zdmciIHZlcnNpb249IjEiIHZpZXdCb3g9IjAgMCA0OCA0OCIgZW5hYmxlLWJhY2tncm91bmQ9Im5ldyAwIDAgNDggNDgiPiYjeGE7ICAgIDxnIGZpbGw9IiNGRjk4MDAiPiYjeGE7ICAgICAgICA8cmVjdCB4PSIxIiB5PSIzOCIgd2lkdGg9IjQ2IiBoZWlnaHQ9IjIiLz4mI3hhOyAgICAgICAgPHJlY3QgeD0iMjUiIHk9IjE4IiB3aWR0aD0iNCIgaGVpZ2h0PSIxNiIvPiYjeGE7ICAgICAgICA8cmVjdCB4PSIzMSIgeT0iMTgiIHdpZHRoPSI0IiBoZWlnaHQ9IjE2Ii8+JiN4YTsgICAgICAgIDxyZWN0IHg9IjM3IiB5PSIxOCIgd2lkdGg9IjQiIGhlaWdodD0iMTYiLz4mI3hhOyAgICAgICAgPHJlY3QgeD0iMTkiIHk9IjE4IiB3aWR0aD0iNCIgaGVpZ2h0PSIxNiIvPiYjeGE7ICAgICAgICA8cmVjdCB4PSIxMyIgeT0iMTgiIHdpZHRoPSI0IiBoZWlnaHQ9IjE2Ii8+JiN4YTsgICAgICAgIDxyZWN0IHg9IjciIHk9IjE4IiB3aWR0aD0iNCIgaGVpZ2h0PSIxNiIvPiYjeGE7ICAgICAgICA8cG9seWdvbiBwb2ludHM9IjQzLDE2IDUsMTYgNSwxMyAyNCw0IDQzLDEzIi8+JiN4YTsgICAgICAgIDxyZWN0IHg9IjUiIHk9IjM0IiB3aWR0aD0iMzgiIGhlaWdodD0iMiIvPiYjeGE7ICAgIDwvZz4mI3hhOyAgICA8ZyBmaWxsPSIjRUY2QzAwIj4mI3hhOyAgICAgICAgPHJlY3QgeD0iMjUiIHk9IjE2IiB3aWR0aD0iNCIgaGVpZ2h0PSIyIi8+JiN4YTsgICAgICAgIDxyZWN0IHg9IjMxIiB5PSIxNiIgd2lkdGg9IjQiIGhlaWdodD0iMiIvPiYjeGE7ICAgICAgICA8cmVjdCB4PSIzNyIgeT0iMTYiIHdpZHRoPSI0IiBoZWlnaHQ9IjIiLz4mI3hhOyAgICAgICAgPHJlY3QgeD0iMTkiIHk9IjE2IiB3aWR0aD0iNCIgaGVpZ2h0PSIyIi8+JiN4YTsgICAgICAgIDxyZWN0IHg9IjEzIiB5PSIxNiIgd2lkdGg9IjQiIGhlaWdodD0iMiIvPiYjeGE7ICAgICAgICA8cmVjdCB4PSI3IiB5PSIxNiIgd2lkdGg9IjQiIGhlaWdodD0iMiIvPiYjeGE7ICAgICAgICA8cmVjdCB4PSIzIiB5PSIzNiIgd2lkdGg9IjQyIiBoZWlnaHQ9IjIiLz4mI3hhOyAgICAgICAgPGNpcmNsZSBjeD0iMjQiIGN5PSIxMSIgcj0iMiIvPiYjeGE7ICAgIDwvZz4mI3hhOzwvc3ZnPg==;html=0;" vertex="1" parent="_GWNJ5twluiKmYlob1LI-162">
          <mxGeometry width="48" height="48" as="geometry" />
        </mxCell>
        <mxCell id="_GWNJ5twluiKmYlob1LI-164" value="EDC Bank CIMB" style="text;html=1;align=center;verticalAlign=middle;resizable=0;points=[];autosize=1;strokeColor=none;fillColor=none;" vertex="1" parent="_GWNJ5twluiKmYlob1LI-162">
          <mxGeometry x="-26" y="48" width="100" height="20" as="geometry" />
        </mxCell>
        <mxCell id="_GWNJ5twluiKmYlob1LI-155" value="" style="edgeStyle=orthogonalEdgeStyle;rounded=0;orthogonalLoop=1;jettySize=auto;html=1;entryX=0;entryY=0.5;entryDx=0;entryDy=0;" edge="1" parent="_GWNJ5twluiKmYlob1LI-175" source="_GWNJ5twluiKmYlob1LI-157" target="_GWNJ5twluiKmYlob1LI-163">
          <mxGeometry relative="1" as="geometry">
            <mxPoint x="402.0011111111112" y="206" as="targetPoint" />
          </mxGeometry>
        </mxCell>
        <mxCell id="_GWNJ5twluiKmYlob1LI-165" value="" style="group" vertex="1" connectable="0" parent="_GWNJ5twluiKmYlob1LI-175">
          <mxGeometry x="560" y="20" width="74" height="68" as="geometry" />
        </mxCell>
        <mxCell id="_GWNJ5twluiKmYlob1LI-166" value="" style="shape=image;verticalLabelPosition=bottom;verticalAlign=top;imageAspect=0;aspect=fixed;image=data:image/svg+xml,PHN2ZyB4bWxucz0iaHR0cDovL3d3dy53My5vcmcvMjAwMC9zdmciIHZlcnNpb249IjEiIHZpZXdCb3g9IjAgMCA0OCA0OCIgZW5hYmxlLWJhY2tncm91bmQ9Im5ldyAwIDAgNDggNDgiPiYjeGE7ICAgIDxnIGZpbGw9IiNGRjk4MDAiPiYjeGE7ICAgICAgICA8cmVjdCB4PSIxIiB5PSIzOCIgd2lkdGg9IjQ2IiBoZWlnaHQ9IjIiLz4mI3hhOyAgICAgICAgPHJlY3QgeD0iMjUiIHk9IjE4IiB3aWR0aD0iNCIgaGVpZ2h0PSIxNiIvPiYjeGE7ICAgICAgICA8cmVjdCB4PSIzMSIgeT0iMTgiIHdpZHRoPSI0IiBoZWlnaHQ9IjE2Ii8+JiN4YTsgICAgICAgIDxyZWN0IHg9IjM3IiB5PSIxOCIgd2lkdGg9IjQiIGhlaWdodD0iMTYiLz4mI3hhOyAgICAgICAgPHJlY3QgeD0iMTkiIHk9IjE4IiB3aWR0aD0iNCIgaGVpZ2h0PSIxNiIvPiYjeGE7ICAgICAgICA8cmVjdCB4PSIxMyIgeT0iMTgiIHdpZHRoPSI0IiBoZWlnaHQ9IjE2Ii8+JiN4YTsgICAgICAgIDxyZWN0IHg9IjciIHk9IjE4IiB3aWR0aD0iNCIgaGVpZ2h0PSIxNiIvPiYjeGE7ICAgICAgICA8cG9seWdvbiBwb2ludHM9IjQzLDE2IDUsMTYgNSwxMyAyNCw0IDQzLDEzIi8+JiN4YTsgICAgICAgIDxyZWN0IHg9IjUiIHk9IjM0IiB3aWR0aD0iMzgiIGhlaWdodD0iMiIvPiYjeGE7ICAgIDwvZz4mI3hhOyAgICA8ZyBmaWxsPSIjRUY2QzAwIj4mI3hhOyAgICAgICAgPHJlY3QgeD0iMjUiIHk9IjE2IiB3aWR0aD0iNCIgaGVpZ2h0PSIyIi8+JiN4YTsgICAgICAgIDxyZWN0IHg9IjMxIiB5PSIxNiIgd2lkdGg9IjQiIGhlaWdodD0iMiIvPiYjeGE7ICAgICAgICA8cmVjdCB4PSIzNyIgeT0iMTYiIHdpZHRoPSI0IiBoZWlnaHQ9IjIiLz4mI3hhOyAgICAgICAgPHJlY3QgeD0iMTkiIHk9IjE2IiB3aWR0aD0iNCIgaGVpZ2h0PSIyIi8+JiN4YTsgICAgICAgIDxyZWN0IHg9IjEzIiB5PSIxNiIgd2lkdGg9IjQiIGhlaWdodD0iMiIvPiYjeGE7ICAgICAgICA8cmVjdCB4PSI3IiB5PSIxNiIgd2lkdGg9IjQiIGhlaWdodD0iMiIvPiYjeGE7ICAgICAgICA8cmVjdCB4PSIzIiB5PSIzNiIgd2lkdGg9IjQyIiBoZWlnaHQ9IjIiLz4mI3hhOyAgICAgICAgPGNpcmNsZSBjeD0iMjQiIGN5PSIxMSIgcj0iMiIvPiYjeGE7ICAgIDwvZz4mI3hhOzwvc3ZnPg==;html=0;" vertex="1" parent="_GWNJ5twluiKmYlob1LI-165">
          <mxGeometry width="48" height="48" as="geometry" />
        </mxCell>
        <mxCell id="_GWNJ5twluiKmYlob1LI-167" value="EDC Bank BCA" style="text;html=1;align=center;verticalAlign=middle;resizable=0;points=[];autosize=1;strokeColor=none;fillColor=none;" vertex="1" parent="_GWNJ5twluiKmYlob1LI-165">
          <mxGeometry x="-26" y="48" width="100" height="20" as="geometry" />
        </mxCell>
        <mxCell id="_GWNJ5twluiKmYlob1LI-156" value="" style="edgeStyle=orthogonalEdgeStyle;rounded=0;orthogonalLoop=1;jettySize=auto;html=1;entryX=0;entryY=0.5;entryDx=0;entryDy=0;exitX=0.5;exitY=0;exitDx=0;exitDy=0;" edge="1" parent="_GWNJ5twluiKmYlob1LI-175" source="_GWNJ5twluiKmYlob1LI-157" target="_GWNJ5twluiKmYlob1LI-166">
          <mxGeometry relative="1" as="geometry">
            <mxPoint x="334.00111111111096" y="108" as="targetPoint" />
          </mxGeometry>
        </mxCell>
        <mxCell id="_GWNJ5twluiKmYlob1LI-168" value="" style="group" vertex="1" connectable="0" parent="_GWNJ5twluiKmYlob1LI-175">
          <mxGeometry x="569" y="350" width="69" height="68" as="geometry" />
        </mxCell>
        <mxCell id="_GWNJ5twluiKmYlob1LI-169" value="" style="shape=image;verticalLabelPosition=bottom;verticalAlign=top;imageAspect=0;aspect=fixed;image=data:image/svg+xml,PHN2ZyB4bWxucz0iaHR0cDovL3d3dy53My5vcmcvMjAwMC9zdmciIHZlcnNpb249IjEiIHZpZXdCb3g9IjAgMCA0OCA0OCIgZW5hYmxlLWJhY2tncm91bmQ9Im5ldyAwIDAgNDggNDgiPiYjeGE7ICAgIDxnIGZpbGw9IiNGRjk4MDAiPiYjeGE7ICAgICAgICA8cmVjdCB4PSIxIiB5PSIzOCIgd2lkdGg9IjQ2IiBoZWlnaHQ9IjIiLz4mI3hhOyAgICAgICAgPHJlY3QgeD0iMjUiIHk9IjE4IiB3aWR0aD0iNCIgaGVpZ2h0PSIxNiIvPiYjeGE7ICAgICAgICA8cmVjdCB4PSIzMSIgeT0iMTgiIHdpZHRoPSI0IiBoZWlnaHQ9IjE2Ii8+JiN4YTsgICAgICAgIDxyZWN0IHg9IjM3IiB5PSIxOCIgd2lkdGg9IjQiIGhlaWdodD0iMTYiLz4mI3hhOyAgICAgICAgPHJlY3QgeD0iMTkiIHk9IjE4IiB3aWR0aD0iNCIgaGVpZ2h0PSIxNiIvPiYjeGE7ICAgICAgICA8cmVjdCB4PSIxMyIgeT0iMTgiIHdpZHRoPSI0IiBoZWlnaHQ9IjE2Ii8+JiN4YTsgICAgICAgIDxyZWN0IHg9IjciIHk9IjE4IiB3aWR0aD0iNCIgaGVpZ2h0PSIxNiIvPiYjeGE7ICAgICAgICA8cG9seWdvbiBwb2ludHM9IjQzLDE2IDUsMTYgNSwxMyAyNCw0IDQzLDEzIi8+JiN4YTsgICAgICAgIDxyZWN0IHg9IjUiIHk9IjM0IiB3aWR0aD0iMzgiIGhlaWdodD0iMiIvPiYjeGE7ICAgIDwvZz4mI3hhOyAgICA8ZyBmaWxsPSIjRUY2QzAwIj4mI3hhOyAgICAgICAgPHJlY3QgeD0iMjUiIHk9IjE2IiB3aWR0aD0iNCIgaGVpZ2h0PSIyIi8+JiN4YTsgICAgICAgIDxyZWN0IHg9IjMxIiB5PSIxNiIgd2lkdGg9IjQiIGhlaWdodD0iMiIvPiYjeGE7ICAgICAgICA8cmVjdCB4PSIzNyIgeT0iMTYiIHdpZHRoPSI0IiBoZWlnaHQ9IjIiLz4mI3hhOyAgICAgICAgPHJlY3QgeD0iMTkiIHk9IjE2IiB3aWR0aD0iNCIgaGVpZ2h0PSIyIi8+JiN4YTsgICAgICAgIDxyZWN0IHg9IjEzIiB5PSIxNiIgd2lkdGg9IjQiIGhlaWdodD0iMiIvPiYjeGE7ICAgICAgICA8cmVjdCB4PSI3IiB5PSIxNiIgd2lkdGg9IjQiIGhlaWdodD0iMiIvPiYjeGE7ICAgICAgICA8cmVjdCB4PSIzIiB5PSIzNiIgd2lkdGg9IjQyIiBoZWlnaHQ9IjIiLz4mI3hhOyAgICAgICAgPGNpcmNsZSBjeD0iMjQiIGN5PSIxMSIgcj0iMiIvPiYjeGE7ICAgIDwvZz4mI3hhOzwvc3ZnPg==;html=0;" vertex="1" parent="_GWNJ5twluiKmYlob1LI-168">
          <mxGeometry width="48" height="48" as="geometry" />
        </mxCell>
        <mxCell id="_GWNJ5twluiKmYlob1LI-170" value="EDC Bank BNI" style="text;html=1;align=center;verticalAlign=middle;resizable=0;points=[];autosize=1;strokeColor=none;fillColor=none;" vertex="1" parent="_GWNJ5twluiKmYlob1LI-168">
          <mxGeometry x="-21" y="48" width="90" height="20" as="geometry" />
        </mxCell>
        <mxCell id="_GWNJ5twluiKmYlob1LI-171" value="Customer" style="shape=image;verticalLabelPosition=bottom;verticalAlign=top;imageAspect=0;aspect=fixed;image=data:image/svg+xml,PHN2ZyB4bWxucz0iaHR0cDovL3d3dy53My5vcmcvMjAwMC9zdmciIHZlcnNpb249IjEiIHZpZXdCb3g9IjAgMCA0OCA0OCIgZW5hYmxlLWJhY2tncm91bmQ9Im5ldyAwIDAgNDggNDgiPiYjeGE7ICAgIDxwb2x5Z29uIGZpbGw9IiNGRjk4MDAiIHBvaW50cz0iMjQsMzcgMTksMzEgMTksMjUgMjksMjUgMjksMzEiLz4mI3hhOyAgICA8ZyBmaWxsPSIjRkZBNzI2Ij4mI3hhOyAgICAgICAgPGNpcmNsZSBjeD0iMzMiIGN5PSIxOSIgcj0iMiIvPiYjeGE7ICAgICAgICA8Y2lyY2xlIGN4PSIxNSIgY3k9IjE5IiByPSIyIi8+JiN4YTsgICAgPC9nPiYjeGE7ICAgIDxwYXRoIGZpbGw9IiNGRkI3NEQiIGQ9Ik0zMywxM2MwLTcuNi0xOC01LTE4LDBjMCwxLjEsMCw1LjksMCw3YzAsNSw0LDksOSw5czktNCw5LTlDMzMsMTguOSwzMywxNC4xLDMzLDEzeiIvPiYjeGE7ICAgIDxwYXRoIGZpbGw9IiM0MjQyNDIiIGQ9Ik0yNCw0Yy02LjEsMC0xMCw0LjktMTAsMTFjMCwwLjgsMCwyLjMsMCwyLjNsMiwxLjd2LTVsMTItNGw0LDR2NWwyLTEuN2MwLDAsMC0xLjUsMC0yLjNjMC00LTEtOC02LTlsLTEtMiBIMjR6Ii8+JiN4YTsgICAgPGcgZmlsbD0iIzc4NDcxOSI+JiN4YTsgICAgICAgIDxjaXJjbGUgY3g9IjI4IiBjeT0iMTkiIHI9IjEiLz4mI3hhOyAgICAgICAgPGNpcmNsZSBjeD0iMjAiIGN5PSIxOSIgcj0iMSIvPiYjeGE7ICAgIDwvZz4mI3hhOyAgICA8cG9seWdvbiBmaWxsPSIjZmZmIiBwb2ludHM9IjI0LDQzIDE5LDMxIDI0LDMyIDI5LDMxIi8+JiN4YTsgICAgPHBvbHlnb24gZmlsbD0iI0QzMkYyRiIgcG9pbnRzPSIyMywzNSAyMi4zLDM5LjUgMjQsNDMuNSAyNS43LDM5LjUgMjUsMzUgMjYsMzQgMjQsMzIgMjIsMzQiLz4mI3hhOyAgICA8cGF0aCBmaWxsPSIjNTQ2RTdBIiBkPSJNMjksMzFMMjksMzFsLTUsMTJsLTUtMTJjMCwwLTExLDItMTEsMTNoMzJDNDAsMzMsMjksMzEsMjksMzF6Ii8+JiN4YTs8L3N2Zz4=;labelBackgroundColor=#ffffff;container=1;" vertex="1" parent="_GWNJ5twluiKmYlob1LI-175">
          <mxGeometry y="182" width="48" height="48" as="geometry" />
        </mxCell>
        <mxCell id="_GWNJ5twluiKmYlob1LI-148" style="edgeStyle=none;rounded=0;orthogonalLoop=1;jettySize=auto;html=1;sourcePerimeterSpacing=5;endArrow=none;endFill=0;targetPerimeterSpacing=5;exitX=1;exitY=0.5;exitDx=0;exitDy=0;" edge="1" parent="_GWNJ5twluiKmYlob1LI-175" source="_GWNJ5twluiKmYlob1LI-171" target="_GWNJ5twluiKmYlob1LI-157">
          <mxGeometry relative="1" as="geometry">
            <mxPoint x="223" y="121.9569685954873" as="sourcePoint" />
            <mxPoint x="309.6111111111111" y="185" as="targetPoint" />
          </mxGeometry>
        </mxCell>
        <mxCell id="_GWNJ5twluiKmYlob1LI-173" value="" style="edgeStyle=orthogonalEdgeStyle;rounded=0;orthogonalLoop=1;jettySize=auto;html=1;entryX=0;entryY=0.5;entryDx=0;entryDy=0;" edge="1" parent="_GWNJ5twluiKmYlob1LI-176" source="_GWNJ5twluiKmYlob1LI-163" target="_GWNJ5twluiKmYlob1LI-160">
          <mxGeometry relative="1" as="geometry">
            <mxPoint x="850" y="966" as="targetPoint" />
          </mxGeometry>
        </mxCell>
        <mxCell id="_GWNJ5twluiKmYlob1LI-174" value="" style="edgeStyle=orthogonalEdgeStyle;rounded=0;orthogonalLoop=1;jettySize=auto;html=1;entryX=0.5;entryY=0;entryDx=0;entryDy=0;" edge="1" parent="_GWNJ5twluiKmYlob1LI-176" source="_GWNJ5twluiKmYlob1LI-166" target="_GWNJ5twluiKmYlob1LI-160">
          <mxGeometry relative="1" as="geometry">
            <mxPoint x="880" y="932" as="targetPoint" />
          </mxGeometry>
        </mxCell>
        <mxCell id="_GWNJ5twluiKmYlob1LI-172" value="" style="edgeStyle=orthogonalEdgeStyle;rounded=0;orthogonalLoop=1;jettySize=auto;html=1;entryX=0.536;entryY=1.032;entryDx=0;entryDy=0;entryPerimeter=0;" edge="1" parent="_GWNJ5twluiKmYlob1LI-176" source="_GWNJ5twluiKmYlob1LI-169" target="_GWNJ5twluiKmYlob1LI-161">
          <mxGeometry relative="1" as="geometry">
            <mxPoint x="669.5" y="1116" as="targetPoint" />
            <Array as="points">
              <mxPoint x="870" y="374" />
            </Array>
          </mxGeometry>
        </mxCell>
        <mxCell id="_GWNJ5twluiKmYlob1LI-179" value="" style="group" vertex="1" connectable="0" parent="1">
          <mxGeometry x="1154" y="490" width="100" height="70" as="geometry" />
        </mxCell>
        <mxCell id="_GWNJ5twluiKmYlob1LI-177" value="" style="shape=image;verticalLabelPosition=bottom;verticalAlign=top;imageAspect=0;aspect=fixed;image=data:image/svg+xml,PHN2ZyB4bWxucz0iaHR0cDovL3d3dy53My5vcmcvMjAwMC9zdmciIHZlcnNpb249IjEiIHZpZXdCb3g9IjAgMCA0OCA0OCIgZW5hYmxlLWJhY2tncm91bmQ9Im5ldyAwIDAgNDggNDgiPiYjeGE7ICAgIDxwb2x5Z29uIGZpbGw9IiNGRjk4MDAiIHBvaW50cz0iMjQsMzcgMTksMzEgMTksMjUgMjksMjUgMjksMzEiLz4mI3hhOyAgICA8ZyBmaWxsPSIjRkZBNzI2Ij4mI3hhOyAgICAgICAgPGNpcmNsZSBjeD0iMzMiIGN5PSIxOSIgcj0iMiIvPiYjeGE7ICAgICAgICA8Y2lyY2xlIGN4PSIxNSIgY3k9IjE5IiByPSIyIi8+JiN4YTsgICAgPC9nPiYjeGE7ICAgIDxwYXRoIGZpbGw9IiNGRkI3NEQiIGQ9Ik0zMywxM2MwLTcuNi0xOC01LTE4LDBjMCwxLjEsMCw1LjksMCw3YzAsNSw0LDksOSw5czktNCw5LTlDMzMsMTguOSwzMywxNC4xLDMzLDEzeiIvPiYjeGE7ICAgIDxwYXRoIGZpbGw9IiNGRjU3MjIiIGQ9Ik0yNCw0Yy02LjEsMC0xMCw0LjktMTAsMTFjMCwwLjgsMCwyLjMsMCwyLjNsMiwxLjd2LTVsMTItNGw0LDR2NWwyLTEuN2MwLDAsMC0xLjUsMC0yLjNjMC00LTEtOC02LTlsLTEtMiBIMjR6Ii8+JiN4YTsgICAgPGcgZmlsbD0iIzc4NDcxOSI+JiN4YTsgICAgICAgIDxjaXJjbGUgY3g9IjI4IiBjeT0iMTkiIHI9IjEiLz4mI3hhOyAgICAgICAgPGNpcmNsZSBjeD0iMjAiIGN5PSIxOSIgcj0iMSIvPiYjeGE7ICAgIDwvZz4mI3hhOyAgICA8cGF0aCBmaWxsPSIjQ0ZEOERDIiBkPSJNMjksMzFMMjksMzFsLTUsMWwtNS0xYzAsMC0xMSwyLTExLDEzaDMyQzQwLDMzLDI5LDMxLDI5LDMxeiIvPiYjeGE7ICAgIDxwb2x5Z29uIGZpbGw9IiMzRjUxQjUiIHBvaW50cz0iMjMsMzUgMjIsNDQgMjYsNDQgMjUsMzUgMjYsMzQgMjQsMzIgMjIsMzQiLz4mI3hhOzwvc3ZnPg==;fontSize=11;html=0;" vertex="1" parent="_GWNJ5twluiKmYlob1LI-179">
          <mxGeometry x="26" width="48" height="48" as="geometry" />
        </mxCell>
        <mxCell id="_GWNJ5twluiKmYlob1LI-178" value="&lt;span style=&quot;color: rgb(0 , 0 , 0) ; font-family: &amp;#34;helvetica&amp;#34; ; font-size: 12px ; font-style: normal ; font-weight: 400 ; letter-spacing: normal ; text-indent: 0px ; text-transform: none ; word-spacing: 0px ; background-color: rgb(255 , 255 , 255) ; display: inline ; float: none&quot;&gt;Merchant Owner&lt;/span&gt;" style="text;whiteSpace=wrap;html=1;fontSize=11;align=center;" vertex="1" parent="_GWNJ5twluiKmYlob1LI-179">
          <mxGeometry y="40" width="100" height="30" as="geometry" />
        </mxCell>
      </root>
    </mxGraphModel>
  </diagram>
</mxfile>
